<?xml version="1.0" encoding="UTF-8" standalone="no"?>
<svg width="2404px" height="800px" viewBox="0 0 2404 800" version="1.1" xmlns="http://www.w3.org/2000/svg" xmlns:xlink="http://www.w3.org/1999/xlink" xmlns:sketch="http://www.bohemiancoding.com/sketch/ns">
    <!-- Generator: Sketch 3.1 (8751) - http://www.bohemiancoding.com/sketch -->
    <title>odojs</title>
    <desc>Created with Sketch.</desc>
    <defs></defs>
    <g id="Page-1" stroke="none" stroke-width="1" fill="none" fill-rule="evenodd" sketch:type="MSPage">
        <g id="Odo.js" sketch:type="MSLayerGroup">
            <path d="M-0.313107574,400 L204.000002,800 L2204,800 L2404,400 L2204,0 L204.000002,0 L-0.313107574,400 Z" id="Path-3" fill="#934BCB" sketch:type="MSShapeGroup"></path>
            <g id="gui-2" transform="translate(383.000000, 196.000000)" fill="#FFFFFF" sketch:type="MSShapeGroup">
                <path d="M0,408 L300,408 L300,0 L0,0 L0,408 Z M277,23 L277,385 L23,385 L23,23 L277,23 Z" id="Rectangle-1"></path>
                <path d="M50,408 L300,408 L300,0 L50,0 L50,408 Z M50,23 L300,23 L277,0 L277,408 L300,385 L50,385 L73,408 L73,0 L50,23 Z" id="Rectangle-2"></path>
                <rect id="Rectangle-3" x="50" y="233" width="250" height="115"></rect>
            </g>
            <path d="M963.959,394.9835 C963.959,371.415382 964.531828,351.448249 965.6775,335.0815 C966.823172,318.714752 969.114483,305.294219 972.5515,294.8195 C975.988517,284.344781 980.898468,276.734357 987.2815,271.988 C993.664532,267.241643 1002.09328,264.8685 1012.568,264.8685 C1023.04272,264.8685 1031.47147,267.241643 1037.8545,271.988 C1044.23753,276.734357 1049.14748,284.344781 1052.5845,294.8195 C1056.02152,305.294219 1058.31283,318.714752 1059.4585,335.0815 C1060.60417,351.448249 1061.177,371.415382 1061.177,394.9835 C1061.177,418.551618 1060.60417,438.600584 1059.4585,455.131 C1058.31283,471.661416 1056.02152,485.081948 1052.5845,495.393 C1049.14748,505.704052 1044.23753,513.232643 1037.8545,517.979 C1031.47147,522.725357 1023.04272,525.0985 1012.568,525.0985 C1002.09328,525.0985 993.664532,522.725357 987.2815,517.979 C980.898468,513.232643 975.988517,505.704052 972.5515,495.393 C969.114483,485.081948 966.823172,471.661416 965.6775,455.131 C964.531828,438.600584 963.959,418.551618 963.959,394.9835 L963.959,394.9835 Z M893.255,394.9835 C893.255,421.824968 894.482488,446.374722 896.9375,468.6335 C899.392512,490.892278 904.793458,510.041086 913.1405,526.0805 C921.487542,542.119914 933.516921,554.394791 949.229,562.9055 C964.941079,571.416209 986.053867,575.6715 1012.568,575.6715 C1039.08213,575.6715 1060.19492,571.416209 1075.907,562.9055 C1091.61908,554.394791 1103.64846,542.119914 1111.9955,526.0805 C1120.34254,510.041086 1125.74349,490.892278 1128.1985,468.6335 C1130.65351,446.374722 1131.881,421.824968 1131.881,394.9835 C1131.881,368.469367 1130.65351,344.001445 1128.1985,321.579 C1125.74349,299.156555 1120.34254,279.925914 1111.9955,263.8865 C1103.64846,247.847086 1091.61908,235.326712 1075.907,226.325 C1060.19492,217.323288 1039.08213,212.8225 1012.568,212.8225 C986.053867,212.8225 964.941079,217.323288 949.229,226.325 C933.516921,235.326712 921.487542,247.847086 913.1405,263.8865 C904.793458,279.925914 899.392512,299.156555 896.9375,321.579 C894.482488,344.001445 893.255,368.469367 893.255,394.9835 L893.255,394.9835 Z M1307.168,542.2835 L1307.168,570.2705 L1371.98,570.2705 L1371.98,219.6965 L1304.222,219.6965 L1304.222,330.6625 L1303.24,330.6625 C1296.03863,320.187781 1287.93721,312.33186 1278.9355,307.0945 C1269.93379,301.85714 1259.05006,299.2385 1246.284,299.2385 C1218.46053,299.2385 1198.0024,310.122224 1184.909,331.89 C1171.8156,353.657776 1165.269,389.091255 1165.269,438.1915 C1165.269,487.291746 1171.8156,522.479727 1184.909,543.7565 C1198.0024,565.033273 1218.46053,575.6715 1246.284,575.6715 C1260.03207,575.6715 1271.57045,573.216525 1280.8995,568.3065 C1290.22855,563.396475 1298.6573,554.722229 1306.186,542.2835 L1307.168,542.2835 Z M1233.027,438.1915 C1233.027,409.386023 1235.23648,387.700406 1239.6555,373.134 C1244.07452,358.567594 1253.64893,351.2845 1268.379,351.2845 C1283.43641,351.2845 1293.17448,358.567594 1297.5935,373.134 C1302.01252,387.700406 1304.222,409.386023 1304.222,438.1915 C1304.222,466.996977 1302.01252,488.682594 1297.5935,503.249 C1293.17448,517.815406 1283.43641,525.0985 1268.379,525.0985 C1253.64893,525.0985 1244.07452,517.815406 1239.6555,503.249 C1235.23648,488.682594 1233.027,466.996977 1233.027,438.1915 L1233.027,438.1915 Z M1476.072,438.1915 C1476.072,424.770766 1476.39933,412.332224 1477.054,400.8755 C1477.70867,389.418776 1479.26349,379.598874 1481.7185,371.4155 C1484.17351,363.232126 1487.85598,356.84919 1492.766,352.2665 C1497.67602,347.68381 1504.22263,345.3925 1512.406,345.3925 C1526.15407,345.3925 1535.64664,352.593761 1540.884,366.9965 C1546.12136,381.399239 1548.74,405.130668 1548.74,438.1915 C1548.74,471.252332 1546.12136,494.983761 1540.884,509.3865 C1535.64664,523.789239 1526.15407,530.9905 1512.406,530.9905 C1504.22263,530.9905 1497.67602,528.69919 1492.766,524.1165 C1487.85598,519.53381 1484.17351,513.150874 1481.7185,504.9675 C1479.26349,496.784126 1477.70867,486.964224 1477.054,475.5075 C1476.39933,464.050776 1476.072,451.612234 1476.072,438.1915 L1476.072,438.1915 Z M1408.314,438.1915 C1408.314,461.104948 1409.95065,481.317579 1413.224,498.83 C1416.49735,516.342421 1422.06196,530.908609 1429.918,542.529 C1437.77404,554.149391 1448.41227,562.659973 1461.833,568.061 C1475.25373,573.462027 1492.11123,575.998835 1512.406,575.6715 C1531.71876,575.6715 1548.00343,572.889194 1561.2605,567.3245 C1574.51757,561.759806 1585.23763,553.167391 1593.421,541.547 C1601.60437,529.926609 1607.49632,515.442253 1611.097,498.0935 C1614.69768,480.744747 1616.498,460.777613 1616.498,438.1915 C1616.498,414.950717 1614.86135,394.656253 1611.588,377.3075 C1608.31465,359.958747 1602.75004,345.392559 1594.894,333.6085 C1587.03796,321.824441 1576.39973,313.068362 1562.979,307.34 C1549.55827,301.611638 1532.70077,298.911165 1512.406,299.2385 C1493.09324,299.2385 1476.80857,302.266303 1463.5515,308.322 C1450.29443,314.377697 1439.57437,323.215609 1431.391,334.836 C1423.20763,346.456391 1417.31568,360.940747 1413.715,378.2895 C1410.11432,395.638253 1408.314,415.605387 1408.314,438.1915 L1408.314,438.1915 Z M1721.572,493.6745 L1656.76,493.6745 L1656.76,570.2705 L1721.572,570.2705 L1721.572,493.6745 Z M1773.127,215.7685 L1773.127,273.7065 L1840.885,273.7065 L1840.885,215.7685 L1773.127,215.7685 Z M1773.127,306.1125 L1773.127,565.3605 C1773.127,579.108569 1771.73585,589.337633 1768.9535,596.048 C1766.17115,602.758367 1759.21539,606.1135 1748.086,606.1135 L1742.685,606.1135 C1741.04833,606.1135 1739.24801,605.78617 1737.284,605.1315 L1737.284,654.2315 C1742.19402,654.558835 1746.77665,654.804333 1751.032,654.968 C1755.28735,655.131667 1759.37898,655.2135 1763.307,655.2135 C1778.36441,655.2135 1790.88478,653.740515 1800.8685,650.7945 C1810.85222,647.848485 1818.78997,643.511362 1824.682,637.783 C1830.57403,632.054638 1834.74749,624.935209 1837.2025,616.4245 C1839.65751,607.913791 1840.885,598.093889 1840.885,586.9645 L1840.885,306.1125 L1773.127,306.1125 Z M1938.103,483.8545 L1877.219,483.8545 L1877.219,493.1835 C1877.219,505.949564 1878.69199,517.487948 1881.638,527.799 C1884.58401,538.110052 1889.73946,546.866131 1897.1045,554.0675 C1904.46954,561.268869 1914.4531,566.669815 1927.0555,570.2705 C1939.6579,573.871185 1955.45157,575.6715 1974.437,575.6715 C1988.83974,575.6715 2002.01477,574.198515 2013.9625,571.2525 C2025.91023,568.306485 2036.22112,563.396534 2044.8955,556.5225 C2053.56988,549.648466 2060.36198,541.056052 2065.272,530.745 C2070.18202,520.433948 2072.637,508.240904 2072.637,494.1655 C2072.637,474.198067 2068.21804,458.404391 2059.38,446.784 C2050.54196,435.163609 2035.48477,425.752869 2014.208,418.5515 L1973.455,404.8035 C1961.99828,401.202815 1954.22419,396.78386 1950.1325,391.5465 C1946.04081,386.30914 1943.995,380.417199 1943.995,373.8705 C1943.995,364.377786 1947.18647,357.258357 1953.5695,352.512 C1959.95253,347.765643 1967.39929,345.3925 1975.91,345.3925 C1987.03939,345.3925 1994.81348,348.583968 1999.2325,354.967 C2003.65152,361.350032 2005.861,371.415431 2005.861,385.1635 L2066.745,385.1635 L2066.745,374.3615 C2066.745,350.466047 2059.38007,331.971899 2044.65,318.8785 C2029.91993,305.785101 2007.17049,299.2385 1976.401,299.2385 C1959.05225,299.2385 1944.24056,301.366145 1931.9655,305.6215 C1919.69044,309.876855 1909.62504,315.605131 1901.769,322.8065 C1893.91296,330.007869 1888.18468,338.436618 1884.584,348.093 C1880.98332,357.749382 1879.183,367.978446 1879.183,378.7805 C1879.183,397.438593 1883.92929,412.741274 1893.422,424.689 C1902.91471,436.636726 1916.98991,445.883801 1935.648,452.4305 L1983.275,469.6155 C1989.8217,472.23418 1995.54998,475.752978 2000.46,480.172 C2005.37002,484.591022 2007.825,491.055791 2007.825,499.5665 C2007.825,510.041219 2004.71536,517.89714 1998.496,523.1345 C1992.27664,528.37186 1983.92972,530.9905 1973.455,530.9905 C1961.99828,530.9905 1953.2422,527.471702 1947.1865,520.434 C1941.1308,513.396298 1938.103,504.149224 1938.103,492.6925 L1938.103,483.8545 Z" id="Odo.js-3" fill="#FFFFFF" sketch:type="MSShapeGroup"></path>
        </g>
    </g>
</svg>