<?xml version="1.0" encoding="UTF-8" standalone="no"?>
<svg width="2464px" height="800px" viewBox="0 0 2464 800" version="1.1" xmlns="http://www.w3.org/2000/svg" xmlns:xlink="http://www.w3.org/1999/xlink" xmlns:sketch="http://www.bohemiancoding.com/sketch/ns">
    <!-- Generator: Sketch 3.1 (8751) - http://www.bohemiancoding.com/sketch -->
    <title>ducke</title>
    <desc>Created with Sketch.</desc>
    <defs></defs>
    <g id="Page-1" stroke="none" stroke-width="1" fill="none" fill-rule="evenodd" sketch:type="MSPage">
        <g id="Ducke" sketch:type="MSLayerGroup">
            <path d="M-0.3131085,400 L204.000001,800 L2264,800 L2464,400 L2264,0 L204.000001,0 L-0.3131085,400 Z" id="Path-4" fill="#FFC800" sketch:type="MSShapeGroup"></path>
            <path d="M703.586605,382.873258 C732.392821,405.033707 749.592557,433.018251 749.592557,463.430082 C749.592557,535.255428 653.656292,593.565086 535.464877,593.565086 C419.174024,593.565086 337.871812,525.325894 317.985066,470.046652 C298.451443,415.748507 301.947245,368.11014 302.308372,347.665249 L302.308372,347.665248 L302.308364,347.665248 L302.308372,347.665248 C303.104779,302.236627 338.498933,280.272892 348.855841,280.105106 C348.922388,280.081618 348.988977,280.058307 349.055612,280.035173 L349.055612,280.035174 L348.972019,280.104138 L348.972019,280.104138 C350.452262,280.103656 351.397022,280.565047 351.622262,281.483161 C357.009304,303.440927 358.843957,314.566869 376.291985,332.20981 C384.108466,340.113922 400.097728,357.838679 436.81273,347.936952 C463.039848,339.641648 492.439435,334.550938 523.609507,333.516088 L523.609507,333.516088 C522.5654,327.729032 522.02013,321.767141 522.02013,315.677129 C522.02013,260.867182 566.186858,216.434914 620.66934,216.434914 C655.384159,216.434914 685.910885,234.474017 703.492702,261.742741 C709.292904,262.217576 714.931786,270.854511 716.519846,282.119432 L716.564053,282.441582 C717.048834,286.076921 717.055451,289.56579 716.660024,292.695282 C718.127682,298.922643 719.012075,305.377083 719.251955,311.996983 C719.637984,312.305815 720.013948,312.639444 720.379265,312.998791 C728.226385,320.717621 731.589431,328.436457 755.130695,332.847215 C778.672009,337.257985 792.956628,328.167909 792.12414,337.257985 C792.069272,337.857115 791.996509,338.453864 791.906111,339.047871 C792.784997,345.364003 779.598537,370.283013 760.354603,378.827113 C746.681617,384.897743 723.013826,385.083422 703.586605,382.873258 L703.586605,382.873258 Z" id="duck" fill="#FFFFFF" sketch:type="MSShapeGroup"></path>
            <path d="M1044.941,520.954 L1044.941,274.472 L1074.892,274.472 C1088.31273,274.472 1099.03279,277.008808 1107.0525,282.0825 C1115.07221,287.156192 1121.12781,294.684783 1125.2195,304.6685 C1129.31119,314.652217 1132.01166,327.172591 1133.321,342.23 C1134.63034,357.287409 1135.285,374.799567 1135.285,394.767 C1135.285,418.662453 1134.54851,438.629586 1133.0755,454.669 C1131.60249,470.708414 1128.65652,483.637951 1124.2375,493.458 C1119.81848,503.278049 1113.8447,510.315645 1106.316,514.571 C1098.7873,518.826355 1088.80373,520.954 1076.365,520.954 L1044.941,520.954 Z M974.237,222.426 L974.237,573 L1085.694,573 C1109.26212,573 1128.73826,569.399369 1144.123,562.198 C1159.50774,554.996631 1171.78262,544.031074 1180.948,529.301 C1190.11338,514.570926 1196.57815,495.83128 1200.3425,473.0815 C1204.10685,450.33172 1205.989,423.572487 1205.989,392.803 C1205.989,366.943537 1204.51601,343.539438 1201.57,322.59 C1198.62399,301.640562 1192.97754,283.719241 1184.6305,268.8255 C1176.28346,253.931759 1164.58141,242.475207 1149.524,234.4555 C1134.46659,226.435793 1114.66312,222.426 1090.113,222.426 L974.237,222.426 Z M1386.186,542.067 L1386.186,573 L1450.998,573 L1450.998,308.842 L1383.24,308.842 L1383.24,484.129 C1383.24,513.261812 1371.29245,527.828 1347.397,527.828 C1337.24962,527.828 1329.88469,525.127527 1325.302,519.7265 C1320.71931,514.325473 1318.428,504.751069 1318.428,491.003 L1318.428,308.842 L1250.67,308.842 L1250.67,504.751 C1250.67,531.265133 1256.48011,550.168444 1268.1005,561.4615 C1279.72089,572.754556 1296.33289,578.401 1317.937,578.401 C1332.66707,578.401 1345.76028,575.618694 1357.217,570.054 C1368.67372,564.489306 1378.00263,555.160399 1385.204,542.067 L1386.186,542.067 Z M1623.339,404.096 L1688.151,404.096 C1688.151,372.671843 1680.21325,347.794758 1664.3375,329.464 C1648.46175,311.133242 1624.81216,301.968 1593.388,301.968 C1577.67592,301.968 1563.2734,304.095645 1550.18,308.351 C1537.0866,312.606355 1525.79371,320.053113 1516.301,330.6915 C1506.80829,341.329887 1499.44336,355.568744 1494.206,373.4085 C1488.96864,391.248256 1486.35,413.752197 1486.35,440.921 C1486.35,467.435133 1488.47765,489.611744 1492.733,507.4515 C1496.98835,525.291256 1503.28946,539.530113 1511.6365,550.1685 C1519.98354,560.806887 1530.4581,568.171813 1543.0605,572.2635 C1555.6629,576.355187 1570.47458,578.401 1587.496,578.401 C1623.50285,578.401 1649.28009,569.317591 1664.8285,551.1505 C1680.37691,532.983409 1688.151,506.551507 1688.151,471.854 L1623.339,471.854 C1623.339,493.458108 1620.72036,509.169951 1615.483,518.99 C1610.24564,528.810049 1601.89872,533.72 1590.442,533.72 C1582.9133,533.72 1576.77586,532.001517 1572.0295,528.5645 C1567.28314,525.127483 1563.60068,519.644704 1560.982,512.116 C1558.36332,504.587296 1556.563,495.012891 1555.581,483.3925 C1554.599,471.772109 1554.108,457.778749 1554.108,441.412 C1554.108,426.027256 1554.599,412.688556 1555.581,401.3955 C1556.563,390.102444 1558.36332,380.773537 1560.982,373.4085 C1563.60068,366.043463 1567.52864,360.478852 1572.766,356.7145 C1578.00336,352.950148 1584.71363,351.068 1592.897,351.068 C1599.4437,351.068 1604.68098,352.622818 1608.609,355.7325 C1612.53702,358.842182 1615.56482,362.933808 1617.6925,368.0075 C1619.82018,373.081192 1621.29316,378.727636 1622.1115,384.947 C1622.92984,391.166364 1623.339,397.549301 1623.339,404.096 L1623.339,404.096 Z M1793.716,222.426 L1725.958,222.426 L1725.958,573 L1793.716,573 L1793.716,495.913 L1817.775,464.489 L1874.24,573 L1948.872,573 L1861.474,412.934 L1937.579,308.842 L1862.947,308.842 L1794.698,407.533 L1793.716,407.533 L1793.716,222.426 Z M2096.172,410.97 L2026.941,410.97 L2026.941,400.659 C2026.941,394.439636 2027.51383,388.220364 2028.6595,382.001 C2029.80517,375.781636 2031.68732,370.135192 2034.306,365.0615 C2036.92468,359.987808 2040.44348,355.896182 2044.8625,352.7865 C2049.28152,349.676818 2054.92797,348.122 2061.802,348.122 C2068.67603,348.122 2074.32248,349.513153 2078.7415,352.2955 C2083.16052,355.077847 2086.59749,359.169473 2089.0525,364.5705 C2091.50751,369.971527 2093.226,376.518128 2094.208,384.2105 C2095.19,391.902872 2095.84467,400.822616 2096.172,410.97 L2096.172,410.97 Z M2026.941,451.232 L2160.984,451.232 L2160.984,436.011 C2160.984,415.716232 2159.67468,397.303916 2157.056,380.7735 C2154.43732,364.243084 2149.52737,350.167891 2142.326,338.5475 C2135.12463,326.927109 2125.2229,317.925532 2112.6205,311.5425 C2100.0181,305.159468 2083.8971,301.968 2064.257,301.968 C2041.34355,301.968 2023.01307,305.732296 2009.265,313.261 C1995.51693,320.789704 1984.96054,330.936936 1977.5955,343.703 C1970.23046,356.469064 1965.32051,371.035252 1962.8655,387.402 C1960.41049,403.768749 1959.183,420.789912 1959.183,438.466 C1959.183,455.160083 1959.91949,471.853917 1961.3925,488.548 C1962.86551,505.242083 1966.8753,520.299266 1973.422,533.72 C1979.9687,547.140734 1990.11593,557.942626 2003.864,566.126 C2017.61207,574.309374 2036.76088,578.401 2061.311,578.401 C2093.71716,578.401 2117.44859,570.381414 2132.506,554.342 C2147.56341,538.302586 2155.74666,514.898487 2157.056,484.129 L2096.172,484.129 C2094.20799,500.823083 2090.60736,513.261626 2085.37,521.445 C2080.13264,529.628374 2071.78572,533.72 2060.329,533.72 C2054.10964,533.72 2048.87235,532.001517 2044.617,528.5645 C2040.36165,525.127483 2036.92468,520.544862 2034.306,514.8165 C2031.68732,509.088138 2029.80517,502.541537 2028.6595,495.1765 C2027.51383,487.811463 2026.941,480.201039 2026.941,472.345 L2026.941,451.232 Z" id="Ducke-2" fill="#FFFFFF" sketch:type="MSShapeGroup"></path>
        </g>
    </g>
</svg>