<?xml version="1.0" encoding="UTF-8" standalone="no"?>
<svg width="2524px" height="800px" viewBox="0 0 2524 800" version="1.1" xmlns="http://www.w3.org/2000/svg" xmlns:xlink="http://www.w3.org/1999/xlink" xmlns:sketch="http://www.bohemiancoding.com/sketch/ns">
    <!-- Generator: Sketch 3.1 (8751) - http://www.bohemiancoding.com/sketch -->
    <title>odoql</title>
    <desc>Created with Sketch.</desc>
    <defs></defs>
    <g id="Page-1" stroke="none" stroke-width="1" fill="none" fill-rule="evenodd" sketch:type="MSPage">
        <g id="OdoQL" sketch:type="MSLayerGroup">
            <path d="M-0.3131085,400 L204.000001,800 L2324,800 L2524,400 L2324,0 L204.000001,0 L-0.3131085,400 Z" id="Path-4" fill="#15AE37" sketch:type="MSShapeGroup"></path>
            <path d="M747.75,496.37998 L627.436275,496.379982 L627.436275,339.932734 L665.034314,339.932734 L665.034314,444.246474 L687.593137,444.246474 L687.593137,339.581351 L687.593137,317.373911 L567.279412,317.373911 L567.279412,176.79664 L544.720588,176.79664 L544.720588,317.373911 L364.25,317.373911 L364.25,444.265659 L386.808824,444.265659 L386.808824,339.932734 L424.406863,339.932734 L424.406863,444.294638 L446.965686,444.294638 L446.965686,339.932734 L484.563725,339.932734 L484.563725,444.294638 L507.122549,444.294638 L507.122549,339.932734 L544.720588,339.932734 L544.720588,444.294638 L567.279412,444.294638 L567.279412,339.932734 L604.877451,339.932734 L604.877451,496.379982 L544.720581,496.379984 L544.720588,623.203358 L567.279412,623.203358 L567.279412,518.938806 L604.877451,518.938806 L604.877451,623.203358 L627.436275,623.203358 L627.436275,518.938805 L665.034314,518.938805 L665.034314,623.20336 L687.593137,623.20336 L687.593137,518.938805 L725.191176,518.938804 L725.191176,623.20336 L747.75,623.20336 L747.75,496.37998 Z" id="graph" fill="#FFFFFF" sketch:type="MSShapeGroup"></path>
            <path d="M1044.6365,397.713 C1044.6365,374.144882 1045.20933,354.177749 1046.355,337.811 C1047.50067,321.444252 1049.79198,308.023719 1053.229,297.549 C1056.66602,287.074281 1061.57597,279.463857 1067.959,274.7175 C1074.34203,269.971143 1082.77078,267.598 1093.2455,267.598 C1103.72022,267.598 1112.14897,269.971143 1118.532,274.7175 C1124.91503,279.463857 1129.82498,287.074281 1133.262,297.549 C1136.69902,308.023719 1138.99033,321.444252 1140.136,337.811 C1141.28167,354.177749 1141.8545,374.144882 1141.8545,397.713 C1141.8545,421.281118 1141.28167,441.330084 1140.136,457.8605 C1138.99033,474.390916 1136.69902,487.811448 1133.262,498.1225 C1129.82498,508.433552 1124.91503,515.962143 1118.532,520.7085 C1112.14897,525.454857 1103.72022,527.828 1093.2455,527.828 C1082.77078,527.828 1074.34203,525.454857 1067.959,520.7085 C1061.57597,515.962143 1056.66602,508.433552 1053.229,498.1225 C1049.79198,487.811448 1047.50067,474.390916 1046.355,457.8605 C1045.20933,441.330084 1044.6365,421.281118 1044.6365,397.713 L1044.6365,397.713 Z M973.9325,397.713 C973.9325,424.554468 975.159988,449.104222 977.615,471.363 C980.070012,493.621778 985.470958,512.770586 993.818,528.81 C1002.16504,544.849414 1014.19442,557.124291 1029.9065,565.635 C1045.61858,574.145709 1066.73137,578.401 1093.2455,578.401 C1119.75963,578.401 1140.87242,574.145709 1156.5845,565.635 C1172.29658,557.124291 1184.32596,544.849414 1192.673,528.81 C1201.02004,512.770586 1206.42099,493.621778 1208.876,471.363 C1211.33101,449.104222 1212.5585,424.554468 1212.5585,397.713 C1212.5585,371.198867 1211.33101,346.730945 1208.876,324.3085 C1206.42099,301.886055 1201.02004,282.655414 1192.673,266.616 C1184.32596,250.576586 1172.29658,238.056212 1156.5845,229.0545 C1140.87242,220.052788 1119.75963,215.552 1093.2455,215.552 C1066.73137,215.552 1045.61858,220.052788 1029.9065,229.0545 C1014.19442,238.056212 1002.16504,250.576586 993.818,266.616 C985.470958,282.655414 980.070012,301.886055 977.615,324.3085 C975.159988,346.730945 973.9325,371.198867 973.9325,397.713 L973.9325,397.713 Z M1387.8455,545.013 L1387.8455,573 L1452.6575,573 L1452.6575,222.426 L1384.8995,222.426 L1384.8995,333.392 L1383.9175,333.392 C1376.71613,322.917281 1368.61471,315.06136 1359.613,309.824 C1350.61129,304.58664 1339.72756,301.968 1326.9615,301.968 C1299.13803,301.968 1278.6799,312.851724 1265.5865,334.6195 C1252.4931,356.387276 1245.9465,391.820755 1245.9465,440.921 C1245.9465,490.021246 1252.4931,525.209227 1265.5865,546.486 C1278.6799,567.762773 1299.13803,578.401 1326.9615,578.401 C1340.70957,578.401 1352.24795,575.946025 1361.577,571.036 C1370.90605,566.125975 1379.3348,557.451729 1386.8635,545.013 L1387.8455,545.013 Z M1313.7045,440.921 C1313.7045,412.115523 1315.91398,390.429906 1320.333,375.8635 C1324.75202,361.297094 1334.32643,354.014 1349.0565,354.014 C1364.11391,354.014 1373.85198,361.297094 1378.271,375.8635 C1382.69002,390.429906 1384.8995,412.115523 1384.8995,440.921 C1384.8995,469.726477 1382.69002,491.412094 1378.271,505.9785 C1373.85198,520.544906 1364.11391,527.828 1349.0565,527.828 C1334.32643,527.828 1324.75202,520.544906 1320.333,505.9785 C1315.91398,491.412094 1313.7045,469.726477 1313.7045,440.921 L1313.7045,440.921 Z M1556.7495,440.921 C1556.7495,427.500266 1557.07683,415.061724 1557.7315,403.605 C1558.38617,392.148276 1559.94099,382.328374 1562.396,374.145 C1564.85101,365.961626 1568.53348,359.57869 1573.4435,354.996 C1578.35352,350.41331 1584.90013,348.122 1593.0835,348.122 C1606.83157,348.122 1616.32414,355.323261 1621.5615,369.726 C1626.79886,384.128739 1629.4175,407.860168 1629.4175,440.921 C1629.4175,473.981832 1626.79886,497.713261 1621.5615,512.116 C1616.32414,526.518739 1606.83157,533.72 1593.0835,533.72 C1584.90013,533.72 1578.35352,531.42869 1573.4435,526.846 C1568.53348,522.26331 1564.85101,515.880374 1562.396,507.697 C1559.94099,499.513626 1558.38617,489.693724 1557.7315,478.237 C1557.07683,466.780276 1556.7495,454.341734 1556.7495,440.921 L1556.7495,440.921 Z M1488.9915,440.921 C1488.9915,463.834448 1490.62815,484.047079 1493.9015,501.5595 C1497.17485,519.071921 1502.73946,533.638109 1510.5955,545.2585 C1518.45154,556.878891 1529.08977,565.389473 1542.5105,570.7905 C1555.93123,576.191527 1572.78873,578.728335 1593.0835,578.401 C1612.39626,578.401 1628.68093,575.618694 1641.938,570.054 C1655.19507,564.489306 1665.91513,555.896891 1674.0985,544.2765 C1682.28187,532.656109 1688.17382,518.171753 1691.7745,500.823 C1695.37518,483.474247 1697.1755,463.507113 1697.1755,440.921 C1697.1755,417.680217 1695.53885,397.385753 1692.2655,380.037 C1688.99215,362.688247 1683.42754,348.122059 1675.5715,336.338 C1667.71546,324.553941 1657.07723,315.797862 1643.6565,310.0695 C1630.23577,304.341138 1613.37827,301.640665 1593.0835,301.968 C1573.77074,301.968 1557.48607,304.995803 1544.229,311.0515 C1530.97193,317.107197 1520.25187,325.945109 1512.0685,337.5655 C1503.88513,349.185891 1497.99318,363.670247 1494.3925,381.019 C1490.79182,398.367753 1488.9915,418.334887 1488.9915,440.921 L1488.9915,440.921 Z M1798.8125,397.713 C1798.8125,374.144882 1799.38533,354.177749 1800.531,337.811 C1801.67667,321.444252 1803.96798,308.023719 1807.405,297.549 C1810.84202,287.074281 1815.75197,279.463857 1822.135,274.7175 C1828.51803,269.971143 1836.94678,267.598 1847.4215,267.598 C1857.89622,267.598 1866.32497,269.971143 1872.708,274.7175 C1879.09103,279.463857 1884.00098,287.074281 1887.438,297.549 C1890.87502,308.023719 1893.16633,321.444252 1894.312,337.811 C1895.45767,354.177749 1896.0305,374.144882 1896.0305,397.713 C1896.0305,421.281118 1895.45767,441.330084 1894.312,457.8605 C1893.16633,474.390916 1890.87502,487.811448 1887.438,498.1225 C1884.00098,508.433552 1879.09103,515.962143 1872.708,520.7085 C1866.32497,525.454857 1857.89622,527.828 1847.4215,527.828 C1836.94678,527.828 1828.51803,525.454857 1822.135,520.7085 C1815.75197,515.962143 1810.84202,508.433552 1807.405,498.1225 C1803.96798,487.811448 1801.67667,474.390916 1800.531,457.8605 C1799.38533,441.330084 1798.8125,421.281118 1798.8125,397.713 L1798.8125,397.713 Z M1935.8015,614.735 L1977.5365,576.928 L1939.7295,540.103 C1951.18622,523.408917 1958.55115,502.950788 1961.8245,478.728 C1965.09785,454.505212 1966.7345,427.500482 1966.7345,397.713 C1966.7345,371.198867 1965.50701,346.730945 1963.052,324.3085 C1960.59699,301.886055 1955.19604,282.655414 1946.849,266.616 C1938.50196,250.576586 1926.47258,238.056212 1910.7605,229.0545 C1895.04842,220.052788 1873.93563,215.552 1847.4215,215.552 C1820.90737,215.552 1799.79458,220.052788 1784.0825,229.0545 C1768.37042,238.056212 1756.34104,250.576586 1747.994,266.616 C1739.64696,282.655414 1734.24601,301.886055 1731.791,324.3085 C1729.33599,346.730945 1728.1085,371.198867 1728.1085,397.713 C1728.1085,424.554468 1729.33599,449.104222 1731.791,471.363 C1734.24601,493.621778 1739.64696,512.770586 1747.994,528.81 C1756.34104,544.849414 1768.37042,557.124291 1784.0825,565.635 C1799.79458,574.145709 1820.90737,578.401 1847.4215,578.401 C1865.42492,578.401 1880.9731,576.600685 1894.0665,573 L1935.8015,614.735 Z M2008.4695,573 L2204.3785,573 L2204.3785,515.062 L2079.1735,515.062 L2079.1735,222.426 L2008.4695,222.426 L2008.4695,573 Z" id="OdoQL-2" fill="#FFFFFF" sketch:type="MSShapeGroup"></path>
        </g>
    </g>
</svg>