<?xml version="1.0" encoding="UTF-8" standalone="no"?>
<svg width="2805px" height="800px" viewBox="0 0 2805 800" version="1.1" xmlns="http://www.w3.org/2000/svg" xmlns:xlink="http://www.w3.org/1999/xlink" xmlns:sketch="http://www.bohemiancoding.com/sketch/ns">
    <!-- Generator: Sketch 3.1 (8751) - http://www.bohemiancoding.com/sketch -->
    <title>redwire</title>
    <desc>Created with Sketch.</desc>
    <defs></defs>
    <g id="Page-1" stroke="none" stroke-width="1" fill="none" fill-rule="evenodd" sketch:type="MSPage">
        <g id="Redwire" sketch:type="MSLayerGroup" transform="translate(1.000000, -1.000000)">
            <path d="M-0.313109426,400 L204,800 L2604,800 L2804,400 L2604,0 L204,0 L-0.313109426,400 Z" id="Path-4" fill="#CB4B4B" sketch:type="MSShapeGroup"></path>
            <path d="M439.295113,463.325251 C439.098463,436.424334 439.45473,425.231832 441.506234,412.6207 C444.003321,397.270457 448.879225,385.778576 457.102772,376.722862 C465.107905,367.907663 481.574479,362.483736 518.901675,355.491153 C521.92462,354.924858 532.669075,352.940002 533.123126,352.855694 C538.986498,351.76699 543.544072,350.901127 548.033609,350.014315 C559.652878,347.719176 569.626497,345.503394 579.210801,343.013741 C625.343312,331.030198 659.780016,313.018364 685.425092,282.836865 C690.78927,276.523804 690.020048,267.057531 683.706987,261.693353 C677.393926,256.329175 667.927653,257.098396 662.563475,263.411458 C641.553523,288.137913 612.360725,303.406965 571.668217,313.977395 C562.723746,316.300842 553.302998,318.393796 542.22008,320.58299 C537.861225,321.443989 533.406939,322.290229 527.646371,323.359844 C527.225017,323.438081 516.444775,325.429548 513.3778,326.004091 C493.059532,329.810355 480.871286,332.56492 469.578237,336.284739 C454.401954,341.283657 443.023266,347.602418 434.893683,356.55466 C422.38727,370.326638 415.259063,387.126909 411.895469,407.803795 C409.474698,422.684901 409.08635,434.891872 409.295984,463.554076 C409.304499,464.718333 409.312186,465.838993 409.318971,466.919579 C409.161858,464.464187 408.98429,461.936942 408.78733,459.330764 C408.547717,456.160192 408.336184,453.524896 407.886419,448.034367 C405.563509,419.677351 405.078967,407.655664 406.386411,393.540418 C408.01788,375.926992 412.788847,361.806295 421.79137,349.614911 C430.906026,337.271674 440.692045,327.710188 452.140393,319.4958 C461.461424,312.8078 470.849001,307.53292 486.944757,299.520748 C487.700992,299.144308 497.715031,294.188809 500.745751,292.669249 C506.235293,289.916872 510.849897,287.531413 515.358797,285.091696 C526.692757,278.959014 536.778694,272.770313 546.696141,265.670799 C570.899558,248.344516 593.145583,226.129379 615.260614,195.846374 C620.146331,189.156164 618.683501,179.77202 611.99329,174.886303 C605.30308,170.000585 595.918936,171.463416 591.033219,178.153626 C570.7785,205.889232 550.805596,225.834402 529.233558,241.276984 C520.410714,247.592915 511.375381,253.136968 501.082086,258.706558 C496.881415,260.979495 492.531525,263.228114 487.299624,265.851313 C484.35311,267.328653 474.395145,272.256404 473.576031,272.664144 C456.150752,281.338128 445.590409,287.271985 434.65113,295.121107 C420.697772,305.132882 408.661468,316.893022 397.658045,331.794063 C385.140473,348.745593 378.619453,368.045942 376.514284,390.77347 C374.989431,407.235869 375.517891,420.34715 377.98657,450.48366 C378.431281,455.912487 378.639286,458.503835 378.872637,461.59154 C380.930202,488.817338 380.667731,505.879336 377.003503,522.106132 C372.569772,541.740625 363.040498,557.890492 346.309076,572.049888 C339.418978,577.880812 339.201811,588.432211 345.846153,594.541698 L387.716644,633.041704 C393.341509,638.213779 401.95536,638.330809 407.718661,633.313457 C436.834223,607.966348 451.329795,578.009581 458.73748,537.682168 C460.554959,527.787821 461.494493,520.906545 463.757844,502.432008 C467.104903,475.111739 469.341482,462.903903 474.153408,450.241418 C480.003549,434.846893 488.92195,423.595139 503.099099,414.959062 C510.033345,410.735033 519.498619,408.789288 532.528195,408.889653 C543.356086,408.97306 551.809052,409.911868 576.823031,413.370851 C593.679682,415.701822 602.937482,416.80378 613.495205,417.53305 C653.368514,420.287281 683.924368,413.877447 709.74872,392.76927 C716.162928,387.526458 717.112532,378.076575 711.869719,371.662367 C706.626906,365.248159 697.177024,364.298555 690.762816,369.541368 C671.865757,384.987349 648.533635,389.881829 615.562515,387.604364 C605.88737,386.936058 597.140274,385.894889 580.932387,383.65363 C554.476029,379.995193 545.407049,378.987968 532.759275,378.890543 C514.628027,378.75088 499.903799,381.777691 487.49211,389.33833 C467.399816,401.577646 454.247436,418.17113 446.110035,439.584532 C443.193275,447.259924 441.099454,454.476191 439.295112,463.325252 L439.295113,463.325251 Z" id="wire" fill="#FFFFFF" sketch:type="MSShapeGroup"></path>
            <path d="M896.4655,222.426 L896.4655,573 L967.1695,573 L967.1695,424.718 L1004.9765,424.718 C1019.70657,424.718 1030.18114,428.645961 1036.4005,436.502 C1042.61986,444.358039 1046.05683,455.159931 1046.7115,468.908 L1048.6755,536.175 C1049.00283,543.049034 1049.6575,549.677468 1050.6395,556.0605 C1051.6215,562.443532 1053.91282,568.089975 1057.5135,573 L1134.1095,573 L1134.1095,570.054 C1127.5628,566.453315 1123.30751,559.743049 1121.3435,549.923 C1120.03416,540.102951 1119.05217,525.864093 1118.3975,507.206 C1118.07017,497.713286 1117.74283,489.120872 1117.4155,481.4285 C1117.08817,473.736128 1116.59717,466.616699 1115.9425,460.07 C1113.97849,440.429902 1108.90487,426.191044 1100.7215,417.353 C1092.53813,408.514956 1079.60859,402.78668 1061.9325,400.168 L1061.9325,399.186 C1081.89993,394.930645 1096.62979,385.356241 1106.1225,370.4625 C1115.61521,355.568759 1120.3615,336.338118 1120.3615,312.77 C1120.3615,282.327848 1112.17825,259.660241 1095.8115,244.7665 C1079.44475,229.872759 1056.53165,222.426 1027.0715,222.426 L896.4655,222.426 Z M967.1695,375.618 L967.1695,274.472 L1000.5575,274.472 C1033.291,274.472 1049.6575,290.674838 1049.6575,323.081 C1049.6575,342.066428 1045.07488,355.568793 1035.9095,363.5885 C1026.74412,371.608207 1013.65092,375.618 996.6295,375.618 L967.1695,375.618 Z M1294.6665,410.97 L1225.4355,410.97 L1225.4355,400.659 C1225.4355,394.439636 1226.00833,388.220364 1227.154,382.001 C1228.29967,375.781636 1230.18182,370.135192 1232.8005,365.0615 C1235.41918,359.987808 1238.93798,355.896182 1243.357,352.7865 C1247.77602,349.676818 1253.42247,348.122 1260.2965,348.122 C1267.17053,348.122 1272.81698,349.513153 1277.236,352.2955 C1281.65502,355.077847 1285.09199,359.169473 1287.547,364.5705 C1290.00201,369.971527 1291.7205,376.518128 1292.7025,384.2105 C1293.6845,391.902872 1294.33917,400.822616 1294.6665,410.97 L1294.6665,410.97 Z M1225.4355,451.232 L1359.4785,451.232 L1359.4785,436.011 C1359.4785,415.716232 1358.16918,397.303916 1355.5505,380.7735 C1352.93182,364.243084 1348.02187,350.167891 1340.8205,338.5475 C1333.61913,326.927109 1323.7174,317.925532 1311.115,311.5425 C1298.5126,305.159468 1282.3916,301.968 1262.7515,301.968 C1239.83805,301.968 1221.50757,305.732296 1207.7595,313.261 C1194.01143,320.789704 1183.45504,330.936936 1176.09,343.703 C1168.72496,356.469064 1163.81501,371.035252 1161.36,387.402 C1158.90499,403.768749 1157.6775,420.789912 1157.6775,438.466 C1157.6775,455.160083 1158.41399,471.853917 1159.887,488.548 C1161.36001,505.242083 1165.3698,520.299266 1171.9165,533.72 C1178.4632,547.140734 1188.61043,557.942626 1202.3585,566.126 C1216.10657,574.309374 1235.25538,578.401 1259.8055,578.401 C1292.21166,578.401 1315.94309,570.381414 1331.0005,554.342 C1346.05791,538.302586 1354.24116,514.898487 1355.5505,484.129 L1294.6665,484.129 C1292.70249,500.823083 1289.10186,513.261626 1283.8645,521.445 C1278.62714,529.628374 1270.28022,533.72 1258.8235,533.72 C1252.60414,533.72 1247.36685,532.001517 1243.1115,528.5645 C1238.85615,525.127483 1235.41918,520.544862 1232.8005,514.8165 C1230.18182,509.088138 1228.29967,502.541537 1227.154,495.1765 C1226.00833,487.811463 1225.4355,480.201039 1225.4355,472.345 L1225.4355,451.232 Z M1530.3465,545.013 L1530.3465,573 L1595.1585,573 L1595.1585,222.426 L1527.4005,222.426 L1527.4005,333.392 L1526.4185,333.392 C1519.21713,322.917281 1511.11571,315.06136 1502.114,309.824 C1493.11229,304.58664 1482.22856,301.968 1469.4625,301.968 C1441.63903,301.968 1421.1809,312.851724 1408.0875,334.6195 C1394.9941,356.387276 1388.4475,391.820755 1388.4475,440.921 C1388.4475,490.021245 1394.9941,525.209227 1408.0875,546.486 C1421.1809,567.762773 1441.63903,578.401 1469.4625,578.401 C1483.21057,578.401 1494.74895,575.946025 1504.078,571.036 C1513.40705,566.125975 1521.8358,557.451729 1529.3645,545.013 L1530.3465,545.013 Z M1456.2055,440.921 C1456.2055,412.115523 1458.41498,390.429906 1462.834,375.8635 C1467.25302,361.297094 1476.82743,354.014 1491.5575,354.014 C1506.61491,354.014 1516.35298,361.297094 1520.772,375.8635 C1525.19102,390.429906 1527.4005,412.115523 1527.4005,440.921 C1527.4005,469.726477 1525.19102,491.412094 1520.772,505.9785 C1516.35298,520.544906 1506.61491,527.828 1491.5575,527.828 C1476.82743,527.828 1467.25302,520.544906 1462.834,505.9785 C1458.41498,491.412094 1456.2055,469.726477 1456.2055,440.921 L1456.2055,440.921 Z M1621.1815,308.842 L1678.6285,573 L1757.1885,573 L1790.0855,385.438 L1791.0675,385.438 L1825.9285,573 L1903.0155,573 L1959.9715,308.842 L1895.1595,308.842 L1863.2445,496.404 L1862.2625,496.404 L1827.4015,308.842 L1753.7515,308.842 L1720.8545,496.404 L1719.8725,496.404 L1688.9395,308.842 L1621.1815,308.842 Z M1988.4495,218.498 L1988.4495,276.436 L2056.2075,276.436 L2056.2075,218.498 L1988.4495,218.498 Z M1988.4495,308.842 L1988.4495,573 L2056.2075,573 L2056.2075,308.842 L1988.4495,308.842 Z M2103.8345,308.842 L2103.8345,573 L2171.5925,573 L2171.5925,414.407 C2171.5925,405.568956 2173.06549,398.122197 2176.0115,392.0665 C2178.95751,386.010803 2182.88548,381.100852 2187.7955,377.3365 C2192.70552,373.572148 2198.10647,370.871675 2203.9985,369.235 C2209.89053,367.598325 2215.78247,366.78 2221.6745,366.78 C2225.27518,366.78 2228.79398,366.861833 2232.231,367.0255 C2235.66802,367.189167 2239.18682,367.434665 2242.7875,367.762 L2242.7875,302.95 C2240.82349,302.622665 2238.77768,302.377167 2236.65,302.2135 C2234.52232,302.049833 2232.47651,301.968 2230.5125,301.968 C2216.4371,301.968 2204.48955,305.814128 2194.6695,313.5065 C2184.84945,321.198872 2176.50253,331.427936 2169.6285,344.194 L2168.6465,344.194 L2168.6465,308.842 L2103.8345,308.842 Z M2394.5065,410.97 L2325.2755,410.97 L2325.2755,400.659 C2325.2755,394.439636 2325.84833,388.220364 2326.994,382.001 C2328.13967,375.781636 2330.02182,370.135192 2332.6405,365.0615 C2335.25918,359.987808 2338.77798,355.896182 2343.197,352.7865 C2347.61602,349.676818 2353.26247,348.122 2360.1365,348.122 C2367.01053,348.122 2372.65698,349.513153 2377.076,352.2955 C2381.49502,355.077847 2384.93199,359.169473 2387.387,364.5705 C2389.84201,369.971527 2391.5605,376.518128 2392.5425,384.2105 C2393.5245,391.902872 2394.17917,400.822616 2394.5065,410.97 L2394.5065,410.97 Z M2325.2755,451.232 L2459.3185,451.232 L2459.3185,436.011 C2459.3185,415.716232 2458.00918,397.303916 2455.3905,380.7735 C2452.77182,364.243084 2447.86187,350.167891 2440.6605,338.5475 C2433.45913,326.927109 2423.5574,317.925532 2410.955,311.5425 C2398.3526,305.159468 2382.2316,301.968 2362.5915,301.968 C2339.67805,301.968 2321.34757,305.732296 2307.5995,313.261 C2293.85143,320.789704 2283.29504,330.936936 2275.93,343.703 C2268.56496,356.469064 2263.65501,371.035252 2261.2,387.402 C2258.74499,403.768749 2257.5175,420.789912 2257.5175,438.466 C2257.5175,455.160083 2258.25399,471.853917 2259.727,488.548 C2261.20001,505.242083 2265.2098,520.299266 2271.7565,533.72 C2278.3032,547.140734 2288.45043,557.942626 2302.1985,566.126 C2315.94657,574.309374 2335.09538,578.401 2359.6455,578.401 C2392.05166,578.401 2415.78309,570.381414 2430.8405,554.342 C2445.89791,538.302586 2454.08116,514.898487 2455.3905,484.129 L2394.5065,484.129 C2392.54249,500.823083 2388.94186,513.261626 2383.7045,521.445 C2378.46714,529.628374 2370.12022,533.72 2358.6635,533.72 C2352.44414,533.72 2347.20685,532.001517 2342.9515,528.5645 C2338.69615,525.127483 2335.25918,520.544862 2332.6405,514.8165 C2330.02182,509.088138 2328.13967,502.541537 2326.994,495.1765 C2325.84833,487.811463 2325.2755,480.201039 2325.2755,472.345 L2325.2755,451.232 Z" id="Redwire-2" fill="#FFFFFF" sketch:type="MSShapeGroup"></path>
        </g>
    </g>
</svg>