<?xml version="1.0" encoding="UTF-8" standalone="no"?>
<svg width="2805px" height="800px" viewBox="0 0 2805 800" version="1.1" xmlns="http://www.w3.org/2000/svg" xmlns:xlink="http://www.w3.org/1999/xlink" xmlns:sketch="http://www.bohemiancoding.com/sketch/ns">
    <!-- Generator: Sketch 3.1 (8751) - http://www.bohemiancoding.com/sketch -->
    <title>redwire</title>
    <desc>Created with Sketch.</desc>
    <defs></defs>
    <g id="Page-1" stroke="none" stroke-width="1" fill="none" fill-rule="evenodd" sketch:type="MSPage">
        <g id="Redwire" sketch:type="MSLayerGroup" transform="translate(1.000000, -1.000000)">
            <path d="M-0.313109426,400 L204,800 L2604,800 L2804,400 L2604,0 L204,0 L-0.313109426,400 Z" id="Path-4" fill="#CB4B4B" sketch:type="MSShapeGroup"></path>
            <g id="wire" transform="translate(356.000000, 187.000000)" stroke="#FFFFFF" stroke-width="30" sketch:type="MSShapeGroup" stroke-linecap="round" stroke-linejoin="round">
                <path d="M344.255768,194.155319 C281.215357,245.682969 186.289365,186.522224 139.295604,215.148696 C64.3809273,260.783326 122.102765,365.151409 41.8695144,435 L-0.0009765625,396.499994 C81.2332506,327.753436 2.14618929,223.553078 53.7247076,153.704487 C105.303226,83.8558956 168.262124,108.020134 247.146916,2.84217094e-14" id="Path-7"></path>
                <path d="M24.2490235,413.499985 C104.482274,343.651394 39.7091278,235.016779 89.9982276,179.638761 C124.432867,141.719568 252.256956,163.489933 317.994283,86.1241614" id="Path-8"></path>
            </g>
            <path d="M896.4655,222.426 L896.4655,573 L967.1695,573 L967.1695,424.718 L1004.9765,424.718 C1019.70657,424.718 1030.18114,428.645961 1036.4005,436.502 C1042.61986,444.358039 1046.05683,455.159931 1046.7115,468.908 L1048.6755,536.175 C1049.00283,543.049034 1049.6575,549.677468 1050.6395,556.0605 C1051.6215,562.443532 1053.91282,568.089975 1057.5135,573 L1134.1095,573 L1134.1095,570.054 C1127.5628,566.453315 1123.30751,559.743049 1121.3435,549.923 C1120.03416,540.102951 1119.05217,525.864093 1118.3975,507.206 C1118.07017,497.713286 1117.74283,489.120872 1117.4155,481.4285 C1117.08817,473.736128 1116.59717,466.616699 1115.9425,460.07 C1113.97849,440.429902 1108.90487,426.191044 1100.7215,417.353 C1092.53813,408.514956 1079.60859,402.78668 1061.9325,400.168 L1061.9325,399.186 C1081.89993,394.930645 1096.62979,385.356241 1106.1225,370.4625 C1115.61521,355.568759 1120.3615,336.338118 1120.3615,312.77 C1120.3615,282.327848 1112.17825,259.660241 1095.8115,244.7665 C1079.44475,229.872759 1056.53165,222.426 1027.0715,222.426 L896.4655,222.426 Z M967.1695,375.618 L967.1695,274.472 L1000.5575,274.472 C1033.291,274.472 1049.6575,290.674838 1049.6575,323.081 C1049.6575,342.066428 1045.07488,355.568793 1035.9095,363.5885 C1026.74412,371.608207 1013.65092,375.618 996.6295,375.618 L967.1695,375.618 Z M1294.6665,410.97 L1225.4355,410.97 L1225.4355,400.659 C1225.4355,394.439636 1226.00833,388.220364 1227.154,382.001 C1228.29967,375.781636 1230.18182,370.135192 1232.8005,365.0615 C1235.41918,359.987808 1238.93798,355.896182 1243.357,352.7865 C1247.77602,349.676818 1253.42247,348.122 1260.2965,348.122 C1267.17053,348.122 1272.81698,349.513153 1277.236,352.2955 C1281.65502,355.077847 1285.09199,359.169473 1287.547,364.5705 C1290.00201,369.971527 1291.7205,376.518128 1292.7025,384.2105 C1293.6845,391.902872 1294.33917,400.822616 1294.6665,410.97 L1294.6665,410.97 Z M1225.4355,451.232 L1359.4785,451.232 L1359.4785,436.011 C1359.4785,415.716232 1358.16918,397.303916 1355.5505,380.7735 C1352.93182,364.243084 1348.02187,350.167891 1340.8205,338.5475 C1333.61913,326.927109 1323.7174,317.925532 1311.115,311.5425 C1298.5126,305.159468 1282.3916,301.968 1262.7515,301.968 C1239.83805,301.968 1221.50757,305.732296 1207.7595,313.261 C1194.01143,320.789704 1183.45504,330.936936 1176.09,343.703 C1168.72496,356.469064 1163.81501,371.035252 1161.36,387.402 C1158.90499,403.768749 1157.6775,420.789912 1157.6775,438.466 C1157.6775,455.160083 1158.41399,471.853917 1159.887,488.548 C1161.36001,505.242083 1165.3698,520.299266 1171.9165,533.72 C1178.4632,547.140734 1188.61043,557.942626 1202.3585,566.126 C1216.10657,574.309374 1235.25538,578.401 1259.8055,578.401 C1292.21166,578.401 1315.94309,570.381414 1331.0005,554.342 C1346.05791,538.302586 1354.24116,514.898487 1355.5505,484.129 L1294.6665,484.129 C1292.70249,500.823083 1289.10186,513.261626 1283.8645,521.445 C1278.62714,529.628374 1270.28022,533.72 1258.8235,533.72 C1252.60414,533.72 1247.36685,532.001517 1243.1115,528.5645 C1238.85615,525.127483 1235.41918,520.544862 1232.8005,514.8165 C1230.18182,509.088138 1228.29967,502.541537 1227.154,495.1765 C1226.00833,487.811463 1225.4355,480.201039 1225.4355,472.345 L1225.4355,451.232 Z M1530.3465,545.013 L1530.3465,573 L1595.1585,573 L1595.1585,222.426 L1527.4005,222.426 L1527.4005,333.392 L1526.4185,333.392 C1519.21713,322.917281 1511.11571,315.06136 1502.114,309.824 C1493.11229,304.58664 1482.22856,301.968 1469.4625,301.968 C1441.63903,301.968 1421.1809,312.851724 1408.0875,334.6195 C1394.9941,356.387276 1388.4475,391.820755 1388.4475,440.921 C1388.4475,490.021245 1394.9941,525.209227 1408.0875,546.486 C1421.1809,567.762773 1441.63903,578.401 1469.4625,578.401 C1483.21057,578.401 1494.74895,575.946025 1504.078,571.036 C1513.40705,566.125975 1521.8358,557.451729 1529.3645,545.013 L1530.3465,545.013 Z M1456.2055,440.921 C1456.2055,412.115523 1458.41498,390.429906 1462.834,375.8635 C1467.25302,361.297094 1476.82743,354.014 1491.5575,354.014 C1506.61491,354.014 1516.35298,361.297094 1520.772,375.8635 C1525.19102,390.429906 1527.4005,412.115523 1527.4005,440.921 C1527.4005,469.726477 1525.19102,491.412094 1520.772,505.9785 C1516.35298,520.544906 1506.61491,527.828 1491.5575,527.828 C1476.82743,527.828 1467.25302,520.544906 1462.834,505.9785 C1458.41498,491.412094 1456.2055,469.726477 1456.2055,440.921 L1456.2055,440.921 Z M1621.1815,308.842 L1678.6285,573 L1757.1885,573 L1790.0855,385.438 L1791.0675,385.438 L1825.9285,573 L1903.0155,573 L1959.9715,308.842 L1895.1595,308.842 L1863.2445,496.404 L1862.2625,496.404 L1827.4015,308.842 L1753.7515,308.842 L1720.8545,496.404 L1719.8725,496.404 L1688.9395,308.842 L1621.1815,308.842 Z M1988.4495,218.498 L1988.4495,276.436 L2056.2075,276.436 L2056.2075,218.498 L1988.4495,218.498 Z M1988.4495,308.842 L1988.4495,573 L2056.2075,573 L2056.2075,308.842 L1988.4495,308.842 Z M2103.8345,308.842 L2103.8345,573 L2171.5925,573 L2171.5925,414.407 C2171.5925,405.568956 2173.06549,398.122197 2176.0115,392.0665 C2178.95751,386.010803 2182.88548,381.100852 2187.7955,377.3365 C2192.70552,373.572148 2198.10647,370.871675 2203.9985,369.235 C2209.89053,367.598325 2215.78247,366.78 2221.6745,366.78 C2225.27518,366.78 2228.79398,366.861833 2232.231,367.0255 C2235.66802,367.189167 2239.18682,367.434665 2242.7875,367.762 L2242.7875,302.95 C2240.82349,302.622665 2238.77768,302.377167 2236.65,302.2135 C2234.52232,302.049833 2232.47651,301.968 2230.5125,301.968 C2216.4371,301.968 2204.48955,305.814128 2194.6695,313.5065 C2184.84945,321.198872 2176.50253,331.427936 2169.6285,344.194 L2168.6465,344.194 L2168.6465,308.842 L2103.8345,308.842 Z M2394.5065,410.97 L2325.2755,410.97 L2325.2755,400.659 C2325.2755,394.439636 2325.84833,388.220364 2326.994,382.001 C2328.13967,375.781636 2330.02182,370.135192 2332.6405,365.0615 C2335.25918,359.987808 2338.77798,355.896182 2343.197,352.7865 C2347.61602,349.676818 2353.26247,348.122 2360.1365,348.122 C2367.01053,348.122 2372.65698,349.513153 2377.076,352.2955 C2381.49502,355.077847 2384.93199,359.169473 2387.387,364.5705 C2389.84201,369.971527 2391.5605,376.518128 2392.5425,384.2105 C2393.5245,391.902872 2394.17917,400.822616 2394.5065,410.97 L2394.5065,410.97 Z M2325.2755,451.232 L2459.3185,451.232 L2459.3185,436.011 C2459.3185,415.716232 2458.00918,397.303916 2455.3905,380.7735 C2452.77182,364.243084 2447.86187,350.167891 2440.6605,338.5475 C2433.45913,326.927109 2423.5574,317.925532 2410.955,311.5425 C2398.3526,305.159468 2382.2316,301.968 2362.5915,301.968 C2339.67805,301.968 2321.34757,305.732296 2307.5995,313.261 C2293.85143,320.789704 2283.29504,330.936936 2275.93,343.703 C2268.56496,356.469064 2263.65501,371.035252 2261.2,387.402 C2258.74499,403.768749 2257.5175,420.789912 2257.5175,438.466 C2257.5175,455.160083 2258.25399,471.853917 2259.727,488.548 C2261.20001,505.242083 2265.2098,520.299266 2271.7565,533.72 C2278.3032,547.140734 2288.45043,557.942626 2302.1985,566.126 C2315.94657,574.309374 2335.09538,578.401 2359.6455,578.401 C2392.05166,578.401 2415.78309,570.381414 2430.8405,554.342 C2445.89791,538.302586 2454.08116,514.898487 2455.3905,484.129 L2394.5065,484.129 C2392.54249,500.823083 2388.94186,513.261626 2383.7045,521.445 C2378.46714,529.628374 2370.12022,533.72 2358.6635,533.72 C2352.44414,533.72 2347.20685,532.001517 2342.9515,528.5645 C2338.69615,525.127483 2335.25918,520.544862 2332.6405,514.8165 C2330.02182,509.088138 2328.13967,502.541537 2326.994,495.1765 C2325.84833,487.811463 2325.2755,480.201039 2325.2755,472.345 L2325.2755,451.232 Z" id="Redwire-2" fill="#FFFFFF" sketch:type="MSShapeGroup"></path>
        </g>
    </g>
</svg>