<?xml version="1.0" encoding="UTF-8" standalone="no"?>
<svg width="2944px" height="800px" viewBox="0 0 2944 800" version="1.1" xmlns="http://www.w3.org/2000/svg" xmlns:xlink="http://www.w3.org/1999/xlink" xmlns:sketch="http://www.bohemiancoding.com/sketch/ns">
    <!-- Generator: Sketch 3.1 (8751) - http://www.bohemiancoding.com/sketch -->
    <title>tugboat</title>
    <desc>Created with Sketch.</desc>
    <defs></defs>
    <g id="Page-1" stroke="none" stroke-width="1" fill="none" fill-rule="evenodd" sketch:type="MSPage">
        <g id="Tugboat" sketch:type="MSLayerGroup">
            <path d="M-0.3131085,400 L204.000001,800 L2744,800 L2944,400 L2744,0 L204.000001,0 L-0.3131085,400 Z" id="Path-4" fill="#198FDB" sketch:type="MSShapeGroup"></path>
            <g id="boat" transform="translate(328.000000, 202.000000)" fill="#FFFFFF" sketch:type="MSShapeGroup">
                <path d="M285.061895,0.853312789 C285.061895,0.853312789 282.072369,21.2002772 282.072369,36.0177561 L282.072369,137.915434 C290.421091,135.778887 306.001074,127.492934 305.031355,102.69888 C336.975655,102.667613 368.919954,102.84479 400.864253,102.584236 C401.198202,104.439384 399.987637,215.091695 399.987637,215.091695 C404.944691,213.257391 509.241105,175.529091 509.241105,175.529091 L532.033118,203.158296 C526.710807,227.650425 530.311194,252.98675 529.40327,277.822811 C530.238142,295.373766 526.752551,313.800185 516.05575,328.130686 C507.060002,339.772264 495.37179,350.058958 481.137219,354.582185 C467.330519,359.022035 452.918537,360.950138 438.673529,363.461884 C384.166808,372.550027 328.898266,376.969033 273.640159,376.864811 C207.549586,376.802278 49.9570143,377.427609 37.3295716,376.197791 C16.8543299,373.696467 -0.0727047412,354.811473 0.136013319,334.113019 C-1.58591068,311.048729 18.461459,290.600407 40.9717018,288.755681 C33.6561338,285.149605 26.3718735,281.470575 19.2441517,277.489301 C21.6131017,272.194833 32.873441,248.275924 35.7015708,241.355595 C41.806574,241.553616 65.7047906,245.545307 65.7047906,245.545307 C65.7047906,245.545307 66.5187923,192.319226 65.7047919,168.369051 C65.9448177,163.439359 63.8785089,158.989087 62.4070465,154.445015 C65.1934326,153.402797 67.9902547,151.902003 71.0375383,151.995803 C73.4691037,152.5586 75.5771561,153.965595 77.6852085,155.257946 C73.4795396,165.30493 74.3874632,176.487931 74.1996169,187.139402 C74.3144119,206.608039 74.3248478,226.076675 74.3248478,245.545312 L159.252234,250.082271 L159.252234,131.901836 C189.109353,131.630859 248.687915,131.901835 248.687915,131.901835 L248.729659,36.0177563 C248.614864,24.2511124 249.042736,12.2134916 245.473657,0.853312786 C256.890535,-0.543259661 273.571966,0.17587093 285.061895,0.853312789 Z M355.040203,112.099688 C361.31218,112.089266 367.594594,112.089266 373.877008,112.099688 C373.803956,120.6563 373.856136,129.223334 373.605674,137.790368 C367.406748,137.967545 361.218257,138.092611 355.040203,138.217677 L355.040203,112.099688 Z M384.897321,112.089266 C387.60022,112.099688 393.016454,112.099688 395.729788,112.099688 L395.729788,138.259366 C392.995582,138.123878 387.537605,137.832057 384.813834,137.686146 C385.064296,129.150379 385.179091,120.614611 384.897321,112.089266 Z M164.063178,141.281799 L189.109345,141.281799 L189.109345,175.675001 C180.750187,175.664579 172.4119,175.675001 164.063178,175.675001 L164.063178,141.281799 Z M193.283706,141.281799 L218.329873,141.281799 L218.329873,175.675001 C209.970715,175.664579 201.632429,175.675001 193.283706,175.675001 L193.283706,141.281799 Z M222.504235,141.281799 L248.593992,141.281799 L248.593992,175.675001 C239.890449,175.664579 231.197342,175.664579 222.504235,175.675001 L222.504235,141.281799 Z" id="Shape"></path>
                <path d="M33.84398,166.59728 C44.1024727,166.347148 54.3714012,166.242926 64.6298939,166.503481 C64.7551247,174.309695 64.7864324,182.136754 64.6925093,189.963813 C54.4340166,190.203523 44.1650881,190.307745 33.9065954,190.057613 C33.7813646,182.230554 33.7500569,174.413917 33.84398,166.59728 L33.84398,166.59728 Z" id="Shape"></path>
                <path d="M44.2903189,192.704847 C50.9066814,192.506826 57.5230439,192.392182 64.1498423,192.308804 C64.4524835,198.791402 64.6403298,205.284421 64.7551247,211.798285 C57.8256851,211.96504 50.9066814,212.121373 43.9772418,212.204751 C44.071165,205.701309 44.0920368,199.208289 44.2903189,192.704847 L44.2903189,192.704847 Z" id="Shape"></path>
            </g>
            <path d="M1270.2715,222.426 L1046.3755,222.426 L1046.3755,280.364 L1122.9715,280.364 L1122.9715,573 L1193.6755,573 L1193.6755,280.364 L1270.2715,280.364 L1270.2715,222.426 Z M1397.9315,542.067 L1397.9315,573 L1462.7435,573 L1462.7435,308.842 L1394.9855,308.842 L1394.9855,484.129 C1394.9855,513.261812 1383.03795,527.828 1359.1425,527.828 C1348.99512,527.828 1341.63019,525.127527 1337.0475,519.7265 C1332.46481,514.325473 1330.1735,504.751069 1330.1735,491.003 L1330.1735,308.842 L1262.4155,308.842 L1262.4155,504.751 C1262.4155,531.265133 1268.22561,550.168444 1279.846,561.4615 C1291.46639,572.754556 1308.07839,578.401 1329.6825,578.401 C1344.41257,578.401 1357.50578,575.618694 1368.9625,570.054 C1380.41922,564.489306 1389.74813,555.160399 1396.9495,542.067 L1397.9315,542.067 Z M1570.2725,449.268 C1570.2725,431.591912 1570.68166,416.616561 1571.5,404.3415 C1572.31834,392.066439 1574.03682,382.246537 1576.6555,374.8815 C1579.27418,367.516463 1582.87481,362.19735 1587.4575,358.924 C1592.04019,355.65065 1598.0958,354.014 1605.6245,354.014 C1619.04523,354.014 1628.29231,360.724266 1633.366,374.145 C1638.43969,387.565734 1640.9765,410.315173 1640.9765,442.394 C1640.9765,453.523389 1640.40367,463.752453 1639.258,473.0815 C1638.11233,482.410547 1636.14835,490.348301 1633.366,496.895 C1630.58365,503.441699 1626.81936,508.597148 1622.073,512.3615 C1617.32664,516.125852 1611.35287,518.008 1604.1515,518.008 C1596.95013,518.008 1591.14002,516.125852 1586.721,512.3615 C1582.30198,508.597148 1578.86501,503.523532 1576.41,497.1405 C1573.95499,490.757468 1572.31834,483.474374 1571.5,475.291 C1570.68166,467.107626 1570.2725,458.433379 1570.2725,449.268 L1570.2725,449.268 Z M1705.7885,308.842 L1640.9765,308.842 L1640.9765,338.302 L1639.9945,338.302 C1633.4478,324.553931 1625.10088,315.06136 1614.9535,309.824 C1604.80612,304.58664 1594.98621,301.968 1585.4935,301.968 C1567.16274,301.968 1552.51472,306.059626 1541.549,314.243 C1530.58328,322.426374 1522.23636,332.982769 1516.508,345.9125 C1510.77964,358.842231 1507.01534,373.326586 1505.215,389.366 C1503.41466,405.405414 1502.5145,421.117256 1502.5145,436.502 C1502.5145,484.620241 1509.3066,518.908064 1522.891,539.3665 C1536.4754,559.824936 1556.68803,570.054 1583.5295,570.054 C1594.33155,570.054 1604.72428,567.108029 1614.708,561.216 C1624.69172,555.323971 1633.12047,547.468049 1639.9945,537.648 L1640.9765,537.648 L1640.9765,572.509 C1640.9765,585.602399 1638.19419,596.567956 1632.6295,605.406 C1627.06481,614.244044 1617.40857,618.663 1603.6605,618.663 C1599.40515,618.663 1595.39535,618.00834 1591.631,616.699 C1587.86665,615.38966 1584.34785,613.589345 1581.0745,611.298 C1574.20047,606.387975 1570.7635,599.677709 1570.7635,591.167 L1505.9515,591.167 C1505.9515,613.753113 1513.72559,631.183439 1529.274,643.4585 C1544.82241,655.733561 1566.99902,661.871 1595.8045,661.871 C1635.41203,661.871 1663.64425,653.360418 1680.502,636.339 C1697.35975,619.317582 1705.7885,593.785837 1705.7885,559.743 L1705.7885,308.842 Z M1753.4155,222.426 L1753.4155,573 L1818.2275,573 L1818.2275,545.013 L1819.2095,545.013 C1826.7382,557.451729 1835.16695,566.125975 1844.496,571.036 C1853.82505,575.946025 1865.36343,578.401 1879.1115,578.401 C1906.93497,578.401 1927.3931,567.762773 1940.4865,546.486 C1953.5799,525.209227 1960.1265,490.021245 1960.1265,440.921 C1960.1265,391.820755 1953.5799,356.387276 1940.4865,334.6195 C1927.3931,312.851724 1906.93497,301.968 1879.1115,301.968 C1866.34544,301.968 1855.46171,304.58664 1846.46,309.824 C1837.45829,315.06136 1829.35687,322.917281 1822.1555,333.392 L1821.1735,333.392 L1821.1735,222.426 L1753.4155,222.426 Z M1821.1735,440.921 C1821.1735,412.115523 1823.38298,390.429906 1827.802,375.8635 C1832.22102,361.297094 1841.95909,354.014 1857.0165,354.014 C1871.74657,354.014 1881.32098,361.297094 1885.74,375.8635 C1890.15902,390.429906 1892.3685,412.115523 1892.3685,440.921 C1892.3685,469.726477 1890.15902,491.412094 1885.74,505.9785 C1881.32098,520.544906 1871.74657,527.828 1857.0165,527.828 C1841.95909,527.828 1832.22102,520.544906 1827.802,505.9785 C1823.38298,491.412094 1821.1735,469.726477 1821.1735,440.921 L1821.1735,440.921 Z M2057.8355,440.921 C2057.8355,427.500266 2058.16283,415.061724 2058.8175,403.605 C2059.47217,392.148276 2061.02699,382.328374 2063.482,374.145 C2065.93701,365.961626 2069.61948,359.57869 2074.5295,354.996 C2079.43952,350.41331 2085.98613,348.122 2094.1695,348.122 C2107.91757,348.122 2117.41014,355.323261 2122.6475,369.726 C2127.88486,384.128739 2130.5035,407.860168 2130.5035,440.921 C2130.5035,473.981832 2127.88486,497.713261 2122.6475,512.116 C2117.41014,526.518739 2107.91757,533.72 2094.1695,533.72 C2085.98613,533.72 2079.43952,531.42869 2074.5295,526.846 C2069.61948,522.26331 2065.93701,515.880374 2063.482,507.697 C2061.02699,499.513626 2059.47217,489.693724 2058.8175,478.237 C2058.16283,466.780276 2057.8355,454.341734 2057.8355,440.921 L2057.8355,440.921 Z M1990.0775,440.921 C1990.0775,463.834448 1991.71415,484.047079 1994.9875,501.5595 C1998.26085,519.071921 2003.82546,533.638109 2011.6815,545.2585 C2019.53754,556.878891 2030.17577,565.389473 2043.5965,570.7905 C2057.01723,576.191527 2073.87473,578.728335 2094.1695,578.401 C2113.48226,578.401 2129.76693,575.618694 2143.024,570.054 C2156.28107,564.489306 2167.00113,555.896891 2175.1845,544.2765 C2183.36787,532.656109 2189.25982,518.171753 2192.8605,500.823 C2196.46118,483.474247 2198.2615,463.507113 2198.2615,440.921 C2198.2615,417.680217 2196.62485,397.385753 2193.3515,380.037 C2190.07815,362.688247 2184.51354,348.122059 2176.6575,336.338 C2168.80146,324.553941 2158.16323,315.797862 2144.7425,310.0695 C2131.32177,304.341138 2114.46427,301.640665 2094.1695,301.968 C2074.85674,301.968 2058.57207,304.995803 2045.315,311.0515 C2032.05793,317.107197 2021.33787,325.945109 2013.1545,337.5655 C2004.97113,349.185891 1999.07918,363.670247 1995.4785,381.019 C1991.87782,398.367753 1990.0775,418.334887 1990.0775,440.921 L1990.0775,440.921 Z M2357.8365,440.921 L2357.8365,492.967 C2357.8365,500.168369 2356.52718,506.38764 2353.9085,511.625 C2351.28982,516.86236 2347.93469,521.11765 2343.843,524.391 C2339.75131,527.66435 2335.25052,530.037493 2330.3405,531.5105 C2325.43048,532.983507 2320.68419,533.72 2316.1015,533.72 C2306.93612,533.72 2300.38952,530.119369 2296.4615,522.918 C2292.53348,515.716631 2290.5695,507.042384 2290.5695,496.895 C2290.5695,485.110941 2293.51547,475.782034 2299.4075,468.908 C2305.29953,462.033966 2315.11943,457.124015 2328.8675,454.178 C2333.12285,453.195995 2337.86914,451.641177 2343.1065,449.5135 C2348.34386,447.385823 2353.25381,444.521685 2357.8365,440.921 L2357.8365,440.921 Z M2234.1045,389.857 L2294.9885,389.857 L2294.9885,382.492 C2294.9885,372.017281 2297.60714,363.670364 2302.8445,357.451 C2308.08186,351.231636 2315.93778,348.122 2326.4125,348.122 C2337.86922,348.122 2345.97064,350.986138 2350.717,356.7145 C2355.46336,362.442862 2357.8365,370.380616 2357.8365,380.528 C2357.8365,389.366044 2355.87252,396.07631 2351.9445,400.659 C2348.01648,405.24169 2340.97888,408.84232 2330.8315,411.461 L2292.5335,421.772 C2280.74944,425.04535 2270.68404,428.809645 2262.337,433.065 C2253.98996,437.320355 2247.11603,442.639468 2241.715,449.0225 C2236.31397,455.405532 2232.30418,463.097788 2229.6855,472.0995 C2227.06682,481.101212 2225.7575,491.821271 2225.7575,504.26 C2225.7575,513.098044 2226.90316,522.017788 2229.1945,531.0195 C2231.48584,540.021212 2235.08648,548.122631 2239.9965,555.324 C2244.90652,562.525369 2251.45313,568.171813 2259.6365,572.2635 C2267.81987,576.355187 2277.80344,578.401 2289.5875,578.401 C2305.95425,578.401 2319.29295,576.355187 2329.604,572.2635 C2339.91505,568.171813 2348.99846,559.252069 2356.8545,545.504 L2357.8365,545.504 C2358.8185,550.08669 2359.88233,554.751143 2361.028,559.4975 C2362.17367,564.243857 2363.89216,568.744645 2366.1835,573 L2430.9955,573 C2427.72215,565.143961 2425.51267,557.779034 2424.367,550.905 C2423.22133,544.030966 2422.6485,534.374729 2422.6485,521.936 L2422.6485,382.983 C2422.6485,371.198941 2421.42101,360.315217 2418.966,350.3315 C2416.51099,340.347783 2411.84653,331.755369 2404.9725,324.554 C2398.09847,317.352631 2388.44223,311.78802 2376.0035,307.86 C2363.56477,303.93198 2347.19827,301.968 2326.9035,301.968 C2314.13744,301.968 2302.10806,303.359153 2290.815,306.1415 C2279.52194,308.923847 2269.70204,313.506468 2261.355,319.8895 C2253.00796,326.272532 2246.37952,334.619448 2241.4695,344.9305 C2236.55948,355.241552 2234.1045,368.089256 2234.1045,383.474 L2234.1045,389.857 Z M2485.4965,233.228 L2485.4965,308.842 L2451.1265,308.842 L2451.1265,354.996 L2485.4965,354.996 L2485.4965,506.224 C2485.4965,519.644734 2486.31483,530.773956 2487.9515,539.612 C2489.58817,548.450044 2492.61598,555.569473 2497.035,560.9705 C2501.45402,566.371527 2507.83696,569.972158 2516.184,571.7725 C2524.53104,573.572842 2535.2511,574.473 2548.3445,574.473 C2556.20054,574.473 2563.6473,574.227502 2570.685,573.7365 C2577.7227,573.245498 2585.0058,573 2592.5345,573 L2592.5345,525.864 C2590.24316,526.191335 2587.78818,526.436833 2585.1695,526.6005 C2582.55082,526.764167 2579.93218,526.846 2577.3135,526.846 C2567.49345,526.846 2561.02868,524.636522 2557.919,520.2175 C2554.80932,515.798478 2553.2545,508.351719 2553.2545,497.877 L2553.2545,354.996 L2592.5345,354.996 L2592.5345,308.842 L2553.2545,308.842 L2553.2545,233.228 L2485.4965,233.228 Z" id="Tugboat-2" fill="#FFFFFF" sketch:type="MSShapeGroup"></path>
        </g>
    </g>
</svg>