<?xml version="1.0" encoding="UTF-8"?><!DOCTYPE svg PUBLIC "-//W3C//DTD SVG 1.1//EN" "http://www.w3.org/Graphics/SVG/1.1/DTD/svg11.dtd"><svg xmlns="http://www.w3.org/2000/svg"><symbol id="ducke-flat" viewBox="0 0 2464 800"><title>ducke</title><g fill-rule="evenodd"><path d="M-.313 400L204 800h2060l200-400L2264 0H204L-.313 400z" fill="currentColor"/><path d="M703.587 382.873c28.806 22.16 46.006 50.145 46.006 80.557 0 71.825-95.937 130.135-214.128 130.135-116.29 0-197.593-68.24-217.48-123.518-19.534-54.298-16.038-101.937-15.677-122.382.797-45.428 36.19-67.392 46.548-67.56l.2-.07-.084.07c1.48 0 2.425.46 2.65 1.378 5.387 21.958 7.222 33.084 24.67 50.727 7.816 7.904 23.806 25.63 60.52 15.727 26.228-8.295 55.627-13.386 86.798-14.42-1.045-5.788-1.59-11.75-1.59-17.84 0-54.81 44.167-99.242 98.65-99.242 34.714 0 65.24 18.04 82.823 45.308 5.8.475 11.44 9.112 13.027 20.376l.044.322c.485 3.635.49 7.124.096 10.253 1.468 6.228 2.352 12.682 2.592 19.302.386.31.762.642 1.127 1.002 7.846 7.718 11.21 15.436 34.75 19.847 23.542 4.41 37.827-4.68 36.994 4.41-.055.6-.127 1.197-.218 1.79.88 6.317-12.307 31.236-31.55 39.78-13.674 6.07-37.342 6.256-56.77 4.046zM1044.94 520.954V274.472h29.952c13.42 0 24.14 2.537 32.16 7.61 8.02 5.074 14.076 12.603 18.168 22.587 4.09 9.982 6.792 22.503 8.1 37.56 1.31 15.057 1.965 32.57 1.965 52.537 0 23.895-.736 43.863-2.21 59.902-1.473 16.038-4.418 28.968-8.838 38.788-4.42 9.82-10.392 16.858-17.92 21.113-7.53 4.256-17.513 6.384-29.952 6.384h-31.424zm-70.703-298.528V573h111.457c23.568 0 43.044-3.6 58.43-10.802 15.384-7.2 27.66-18.167 36.824-32.897 9.165-14.73 15.63-33.47 19.394-56.218 3.765-22.75 5.647-49.51 5.647-80.28 0-25.858-1.474-49.263-4.42-70.212-2.946-20.95-8.592-38.87-16.94-53.764-8.347-14.894-20.05-26.35-35.106-34.37-15.057-8.02-34.86-12.03-59.41-12.03H974.236zm411.95 319.64V573h64.81V308.842h-67.757V484.13c0 29.132-11.948 43.698-35.843 43.698-10.147 0-17.512-2.7-22.095-8.1-4.583-5.403-6.874-14.977-6.874-28.725v-182.16h-67.758V504.75c0 26.515 5.81 45.418 17.43 56.712 11.62 11.293 28.233 16.94 49.837 16.94 14.73 0 27.823-2.783 39.28-8.348 11.457-5.565 20.786-14.894 27.987-27.987h.982zm237.152-137.97h64.81c0-31.424-7.937-56.3-23.813-74.632-15.875-18.33-39.525-27.496-70.95-27.496-15.71 0-30.114 2.128-43.207 6.383-13.093 4.256-24.386 11.703-33.88 22.34-9.492 10.64-16.857 24.88-22.094 42.72-5.237 17.838-7.856 40.342-7.856 67.51 0 26.515 2.128 48.692 6.383 66.53 4.255 17.84 10.556 32.08 18.904 42.72 8.347 10.637 18.82 18.002 31.424 22.094 12.603 4.09 27.415 6.137 44.436 6.137 36.007 0 61.784-9.082 77.332-27.25 15.55-18.167 23.323-44.598 23.323-79.296h-64.81c0 21.604-2.62 37.316-7.857 47.136s-13.584 14.73-25.04 14.73c-7.53 0-13.667-1.718-18.413-5.156-4.747-3.437-8.43-8.92-11.048-16.448-2.62-7.53-4.42-17.103-5.4-28.724-.983-11.62-1.474-25.613-1.474-41.98 0-15.385.49-28.723 1.473-40.016.983-11.294 2.783-20.622 5.402-27.988 2.62-7.365 6.547-12.93 11.784-16.694 5.237-3.764 11.948-5.646 20.13-5.646 6.548 0 11.785 1.555 15.713 4.665 3.927 3.11 6.955 7.2 9.083 12.274 2.127 5.074 3.6 10.72 4.418 16.94.82 6.22 1.23 12.602 1.23 19.15zm170.376-181.67h-67.758V573h67.758v-77.087l24.06-31.424L1874.24 573h74.632l-87.398-160.066 76.105-104.092h-74.633l-68.25 98.69h-.98V222.427zm302.456 188.544h-69.23v-10.31c0-6.22.572-12.44 1.717-18.66 1.145-6.218 3.027-11.865 5.646-16.938 2.62-5.074 6.137-9.166 10.556-12.276 4.42-3.11 10.066-4.664 16.94-4.664 6.874 0 12.52 1.39 16.94 4.173 4.42 2.783 7.855 6.874 10.31 12.275 2.456 5.402 4.174 11.948 5.156 19.64.982 7.693 1.637 16.613 1.964 26.76zm-69.23 40.262h134.042v-15.22c0-20.296-1.31-38.708-3.928-55.238-2.62-16.53-7.53-30.606-14.73-42.226-7.2-11.62-17.103-20.622-29.706-27.005-12.602-6.384-28.723-9.575-48.363-9.575-22.913 0-41.244 3.764-54.992 11.293-13.748 7.53-24.304 17.677-31.67 30.443-7.365 12.766-12.274 27.332-14.73 43.7-2.455 16.366-3.682 33.387-3.682 51.063 0 16.694.736 33.388 2.21 50.082 1.473 16.694 5.482 31.75 12.03 45.172 6.546 13.42 16.693 24.223 30.44 32.406 13.75 8.183 32.898 12.275 57.448 12.275 32.407 0 56.14-8.02 71.196-24.058 15.057-16.04 23.24-39.444 24.55-70.213h-60.884c-1.964 16.693-5.565 29.132-10.802 37.315-5.237 8.183-13.584 12.275-25.04 12.275-6.22 0-11.458-1.718-15.713-5.156-4.255-3.437-7.692-8.02-10.31-13.747-2.62-5.73-4.502-12.275-5.648-19.64-1.146-7.366-1.72-14.976-1.72-22.832v-21.113z" fill="currentColor"/></g></symbol><symbol id="ducke" viewBox="0 0 2464 800"><title>ducke</title><g fill-rule="evenodd"><path d="M-.313 400L204 800h2060l200-400L2264 0H204L-.313 400z" fill="#FFC800"/><path d="M703.587 382.873c28.806 22.16 46.006 50.145 46.006 80.557 0 71.825-95.937 130.135-214.128 130.135-116.29 0-197.593-68.24-217.48-123.518-19.534-54.298-16.038-101.937-15.677-122.382.797-45.428 36.19-67.392 46.548-67.56l.2-.07-.084.07c1.48 0 2.425.46 2.65 1.378 5.387 21.958 7.222 33.084 24.67 50.727 7.816 7.904 23.806 25.63 60.52 15.727 26.228-8.295 55.627-13.386 86.798-14.42-1.045-5.788-1.59-11.75-1.59-17.84 0-54.81 44.167-99.242 98.65-99.242 34.714 0 65.24 18.04 82.823 45.308 5.8.475 11.44 9.112 13.027 20.376l.044.322c.485 3.635.49 7.124.096 10.253 1.468 6.228 2.352 12.682 2.592 19.302.386.31.762.642 1.127 1.002 7.846 7.718 11.21 15.436 34.75 19.847 23.542 4.41 37.827-4.68 36.994 4.41-.055.6-.127 1.197-.218 1.79.88 6.317-12.307 31.236-31.55 39.78-13.674 6.07-37.342 6.256-56.77 4.046zM1044.94 520.954V274.472h29.952c13.42 0 24.14 2.537 32.16 7.61 8.02 5.074 14.076 12.603 18.168 22.587 4.09 9.982 6.792 22.503 8.1 37.56 1.31 15.057 1.965 32.57 1.965 52.537 0 23.895-.736 43.863-2.21 59.902-1.473 16.038-4.418 28.968-8.838 38.788-4.42 9.82-10.392 16.858-17.92 21.113-7.53 4.256-17.513 6.384-29.952 6.384h-31.424zm-70.703-298.528V573h111.457c23.568 0 43.044-3.6 58.43-10.802 15.384-7.2 27.66-18.167 36.824-32.897 9.165-14.73 15.63-33.47 19.394-56.218 3.765-22.75 5.647-49.51 5.647-80.28 0-25.858-1.474-49.263-4.42-70.212-2.946-20.95-8.592-38.87-16.94-53.764-8.347-14.894-20.05-26.35-35.106-34.37-15.057-8.02-34.86-12.03-59.41-12.03H974.236zm411.95 319.64V573h64.81V308.842h-67.757V484.13c0 29.132-11.948 43.698-35.843 43.698-10.147 0-17.512-2.7-22.095-8.1-4.583-5.403-6.874-14.977-6.874-28.725v-182.16h-67.758V504.75c0 26.515 5.81 45.418 17.43 56.712 11.62 11.293 28.233 16.94 49.837 16.94 14.73 0 27.823-2.783 39.28-8.348 11.457-5.565 20.786-14.894 27.987-27.987h.982zm237.152-137.97h64.81c0-31.424-7.937-56.3-23.813-74.632-15.875-18.33-39.525-27.496-70.95-27.496-15.71 0-30.114 2.128-43.207 6.383-13.093 4.256-24.386 11.703-33.88 22.34-9.492 10.64-16.857 24.88-22.094 42.72-5.237 17.838-7.856 40.342-7.856 67.51 0 26.515 2.128 48.692 6.383 66.53 4.255 17.84 10.556 32.08 18.904 42.72 8.347 10.637 18.82 18.002 31.424 22.094 12.603 4.09 27.415 6.137 44.436 6.137 36.007 0 61.784-9.082 77.332-27.25 15.55-18.167 23.323-44.598 23.323-79.296h-64.81c0 21.604-2.62 37.316-7.857 47.136s-13.584 14.73-25.04 14.73c-7.53 0-13.667-1.718-18.413-5.156-4.747-3.437-8.43-8.92-11.048-16.448-2.62-7.53-4.42-17.103-5.4-28.724-.983-11.62-1.474-25.613-1.474-41.98 0-15.385.49-28.723 1.473-40.016.983-11.294 2.783-20.622 5.402-27.988 2.62-7.365 6.547-12.93 11.784-16.694 5.237-3.764 11.948-5.646 20.13-5.646 6.548 0 11.785 1.555 15.713 4.665 3.927 3.11 6.955 7.2 9.083 12.274 2.127 5.074 3.6 10.72 4.418 16.94.82 6.22 1.23 12.602 1.23 19.15zm170.376-181.67h-67.758V573h67.758v-77.087l24.06-31.424L1874.24 573h74.632l-87.398-160.066 76.105-104.092h-74.633l-68.25 98.69h-.98V222.427zm302.456 188.544h-69.23v-10.31c0-6.22.572-12.44 1.717-18.66 1.145-6.218 3.027-11.865 5.646-16.938 2.62-5.074 6.137-9.166 10.556-12.276 4.42-3.11 10.066-4.664 16.94-4.664 6.874 0 12.52 1.39 16.94 4.173 4.42 2.783 7.855 6.874 10.31 12.275 2.456 5.402 4.174 11.948 5.156 19.64.982 7.693 1.637 16.613 1.964 26.76zm-69.23 40.262h134.042v-15.22c0-20.296-1.31-38.708-3.928-55.238-2.62-16.53-7.53-30.606-14.73-42.226-7.2-11.62-17.103-20.622-29.706-27.005-12.602-6.384-28.723-9.575-48.363-9.575-22.913 0-41.244 3.764-54.992 11.293-13.748 7.53-24.304 17.677-31.67 30.443-7.365 12.766-12.274 27.332-14.73 43.7-2.455 16.366-3.682 33.387-3.682 51.063 0 16.694.736 33.388 2.21 50.082 1.473 16.694 5.482 31.75 12.03 45.172 6.546 13.42 16.693 24.223 30.44 32.406 13.75 8.183 32.898 12.275 57.448 12.275 32.407 0 56.14-8.02 71.196-24.058 15.057-16.04 23.24-39.444 24.55-70.213h-60.884c-1.964 16.693-5.565 29.132-10.802 37.315-5.237 8.183-13.584 12.275-25.04 12.275-6.22 0-11.458-1.718-15.713-5.156-4.255-3.437-7.692-8.02-10.31-13.747-2.62-5.73-4.502-12.275-5.648-19.64-1.146-7.366-1.72-14.976-1.72-22.832v-21.113z" fill="#FFF"/></g></symbol><symbol id="odojs-flat" viewBox="0 0 2404 800"><title>odojs</title><g fill-rule="evenodd"><path d="M-.313 400L204 800h2000l200-400L2204 0H204L-.313 400z" fill="currentColor"/><g fill="currentColor"><path d="M383 604h300V196H383v408zm277-385v362H406V219h254z"/><path d="M433 604h250V196H433v408zm0-385h250l-23-23v408l23-23H433l23 23V196l-23 23z"/><path d="M433 429h250v115H433z"/></g><path d="M963.96 394.983c0-23.568.572-43.535 1.717-59.901 1.146-16.367 3.437-29.788 6.875-40.262 3.437-10.475 8.346-18.086 14.73-22.832 6.383-4.746 14.81-7.12 25.286-7.12 10.475 0 18.903 2.374 25.286 7.12 6.384 4.746 11.293 12.357 14.73 22.832 3.438 10.474 5.73 23.895 6.874 40.262 1.146 16.366 1.72 36.333 1.72 59.901 0 23.57-.574 43.618-1.72 60.148-1.145 16.53-3.436 29.952-6.874 40.263-3.437 10.31-8.346 17.84-14.73 22.586-6.383 4.745-14.81 7.118-25.286 7.118-10.475 0-18.903-2.373-25.286-7.12-6.384-4.745-11.293-12.274-14.73-22.585-3.438-10.31-5.73-23.732-6.875-40.262-1.145-16.53-1.718-36.578-1.718-60.147zm-70.705 0c0 26.842 1.227 51.392 3.683 73.65 2.455 22.26 7.855 41.408 16.202 57.448 8.348 16.04 20.377 28.315 36.09 36.825 15.71 8.51 36.824 12.767 63.338 12.767 26.514 0 47.627-4.256 63.34-12.767 15.71-8.51 27.74-20.785 36.088-36.824 8.347-16.04 13.747-35.188 16.202-57.447 2.456-22.258 3.683-46.808 3.683-73.65 0-26.514-1.226-50.982-3.682-73.404-2.455-22.423-7.855-41.654-16.203-57.693-8.347-16.04-20.376-28.56-36.088-37.562-15.712-9.002-36.825-13.502-63.34-13.502-26.513 0-47.626 4.5-63.338 13.502-15.713 9.002-27.742 21.522-36.09 37.562-8.347 16.04-13.747 35.27-16.202 57.692-2.456 22.42-3.683 46.89-3.683 73.404zm413.913 147.3v27.987h64.812V219.697h-67.758v110.966h-.982c-7.2-10.475-15.303-18.33-24.304-23.57-9.002-5.236-19.886-7.855-32.652-7.855-27.823 0-48.282 10.884-61.375 32.652-13.094 21.768-19.64 57.2-19.64 106.302 0 49.1 6.546 84.288 19.64 105.564 13.092 21.277 33.55 31.916 61.374 31.916 13.748 0 25.286-2.455 34.615-7.365 9.33-4.91 17.757-13.585 25.286-26.024h.982zm-74.14-104.09c0-28.807 2.208-50.493 6.628-65.06 4.42-14.565 13.993-21.849 28.723-21.849 15.056 0 24.794 7.284 29.213 21.85 4.42 14.566 6.63 36.252 6.63 65.058 0 28.805-2.21 50.49-6.63 65.057-4.42 14.565-14.157 21.848-29.214 21.848-14.73 0-24.305-7.283-28.725-21.85-4.42-14.565-6.628-36.25-6.628-65.056zm243.044 0c0-13.422.327-25.86.982-37.317s2.21-21.277 4.664-29.46c2.456-8.184 6.138-14.567 11.048-19.15 4.91-4.582 11.457-6.874 19.64-6.874 13.748 0 23.24 7.202 28.478 21.605 5.237 14.402 7.856 38.134 7.856 71.195 0 33.06-2.62 56.792-7.856 71.195-5.237 14.402-14.73 21.603-28.478 21.603-8.183 0-14.73-2.29-19.64-6.874-4.91-4.582-8.592-10.965-11.048-19.15-2.455-8.182-4.01-18.002-4.664-29.46-.655-11.455-.982-23.894-.982-37.314zm-67.758 0c0 22.912 1.637 43.125 4.91 60.637s8.838 32.08 16.694 43.7c7.856 11.62 18.494 20.13 31.915 25.53 13.42 5.402 30.278 7.94 50.573 7.612 19.313 0 35.597-2.783 48.855-8.348 13.258-5.564 23.978-14.157 32.16-25.777 8.184-11.62 14.076-26.105 17.677-43.454 3.6-17.348 5.4-37.315 5.4-59.901 0-23.24-1.636-43.536-4.91-60.885-3.272-17.348-8.837-31.914-16.693-43.7-7.856-11.783-18.494-20.54-31.915-26.267-13.422-5.728-30.28-8.43-50.574-8.1-19.313-.002-35.597 3.026-48.854 9.082-13.258 6.056-23.978 14.894-32.16 26.514-8.184 11.62-14.076 26.105-17.677 43.453-3.6 17.348-5.4 37.315-5.4 59.901v.002zm313.258 55.482h-64.812v76.595h64.812v-76.595zm51.555-277.907v57.94l67.758-.002V215.77h-67.758zm0 90.345V565.36c0 13.75-1.39 23.978-4.173 30.688-2.783 6.71-9.74 10.066-20.868 10.066h-5.4c-1.638 0-3.438-.328-5.402-.983v49.1c4.91.33 9.493.574 13.748.738 4.255.164 8.347.245 12.275.245 15.057 0 27.578-1.472 37.562-4.418 9.982-2.947 17.92-7.284 23.812-13.012 5.892-5.728 10.065-12.848 12.52-21.36 2.456-8.51 3.683-18.33 3.683-29.458V306.112h-67.758zm164.976 177.74h-60.884v9.33c0 12.767 1.472 24.305 4.418 34.616 2.946 10.31 8.1 19.066 15.466 26.268 7.366 7.2 17.35 12.602 29.95 16.202 12.604 3.6 28.398 5.402 47.383 5.402 14.403 0 27.578-1.473 39.526-4.42 11.947-2.946 22.258-7.855 30.933-14.73 8.674-6.874 15.466-15.466 20.376-25.777 4.91-10.31 7.365-22.504 7.365-36.58 0-19.967-4.42-35.76-13.257-47.38-8.838-11.62-23.895-21.032-45.172-28.234l-40.753-13.747c-11.457-3.6-19.23-8.02-23.322-13.257-4.092-5.237-6.138-11.13-6.138-17.675 0-9.492 3.19-16.612 9.575-21.358 6.383-4.746 13.83-7.12 22.34-7.12 11.13 0 18.903 3.192 23.322 9.575 4.42 6.383 6.63 16.448 6.63 30.197h60.883V374.36c0-23.894-7.365-42.388-22.095-55.482-14.73-13.093-37.48-19.64-68.25-19.64-17.348 0-32.16 2.128-44.435 6.384-12.275 4.255-22.34 9.983-30.196 17.185-7.857 7.2-13.585 15.63-17.186 25.286-3.6 9.656-5.4 19.885-5.4 30.688 0 18.66 4.745 33.96 14.238 45.91 9.493 11.947 23.568 21.194 42.226 27.74l47.627 17.185c6.547 2.62 12.275 6.138 17.185 10.557 4.91 4.42 7.365 10.884 7.365 19.394 0 10.475-3.11 18.33-9.33 23.57-6.218 5.236-14.565 7.855-25.04 7.855-11.457 0-20.213-3.518-26.268-10.556-6.056-7.038-9.084-16.285-9.084-27.74v-8.84z" fill="currentColor"/></g></symbol><symbol id="odojs" viewBox="0 0 2404 800"><title>odojs</title><g fill-rule="evenodd"><path d="M-.313 400L204 800h2000l200-400L2204 0H204L-.313 400z" fill="#934BCB"/><g fill="#FFF"><path d="M383 604h300V196H383v408zm277-385v362H406V219h254z"/><path d="M433 604h250V196H433v408zm0-385h250l-23-23v408l23-23H433l23 23V196l-23 23z"/><path d="M433 429h250v115H433z"/></g><path d="M963.96 394.983c0-23.568.572-43.535 1.717-59.901 1.146-16.367 3.437-29.788 6.875-40.262 3.437-10.475 8.346-18.086 14.73-22.832 6.383-4.746 14.81-7.12 25.286-7.12 10.475 0 18.903 2.374 25.286 7.12 6.384 4.746 11.293 12.357 14.73 22.832 3.438 10.474 5.73 23.895 6.874 40.262 1.146 16.366 1.72 36.333 1.72 59.901 0 23.57-.574 43.618-1.72 60.148-1.145 16.53-3.436 29.952-6.874 40.263-3.437 10.31-8.346 17.84-14.73 22.586-6.383 4.745-14.81 7.118-25.286 7.118-10.475 0-18.903-2.373-25.286-7.12-6.384-4.745-11.293-12.274-14.73-22.585-3.438-10.31-5.73-23.732-6.875-40.262-1.145-16.53-1.718-36.578-1.718-60.147zm-70.705 0c0 26.842 1.227 51.392 3.683 73.65 2.455 22.26 7.855 41.408 16.202 57.448 8.348 16.04 20.377 28.315 36.09 36.825 15.71 8.51 36.824 12.767 63.338 12.767 26.514 0 47.627-4.256 63.34-12.767 15.71-8.51 27.74-20.785 36.088-36.824 8.347-16.04 13.747-35.188 16.202-57.447 2.456-22.258 3.683-46.808 3.683-73.65 0-26.514-1.226-50.982-3.682-73.404-2.455-22.423-7.855-41.654-16.203-57.693-8.347-16.04-20.376-28.56-36.088-37.562-15.712-9.002-36.825-13.502-63.34-13.502-26.513 0-47.626 4.5-63.338 13.502-15.713 9.002-27.742 21.522-36.09 37.562-8.347 16.04-13.747 35.27-16.202 57.692-2.456 22.42-3.683 46.89-3.683 73.404zm413.913 147.3v27.987h64.812V219.697h-67.758v110.966h-.982c-7.2-10.475-15.303-18.33-24.304-23.57-9.002-5.236-19.886-7.855-32.652-7.855-27.823 0-48.282 10.884-61.375 32.652-13.094 21.768-19.64 57.2-19.64 106.302 0 49.1 6.546 84.288 19.64 105.564 13.092 21.277 33.55 31.916 61.374 31.916 13.748 0 25.286-2.455 34.615-7.365 9.33-4.91 17.757-13.585 25.286-26.024h.982zm-74.14-104.09c0-28.807 2.208-50.493 6.628-65.06 4.42-14.565 13.993-21.849 28.723-21.849 15.056 0 24.794 7.284 29.213 21.85 4.42 14.566 6.63 36.252 6.63 65.058 0 28.805-2.21 50.49-6.63 65.057-4.42 14.565-14.157 21.848-29.214 21.848-14.73 0-24.305-7.283-28.725-21.85-4.42-14.565-6.628-36.25-6.628-65.056zm243.044 0c0-13.422.327-25.86.982-37.317s2.21-21.277 4.664-29.46c2.456-8.184 6.138-14.567 11.048-19.15 4.91-4.582 11.457-6.874 19.64-6.874 13.748 0 23.24 7.202 28.478 21.605 5.237 14.402 7.856 38.134 7.856 71.195 0 33.06-2.62 56.792-7.856 71.195-5.237 14.402-14.73 21.603-28.478 21.603-8.183 0-14.73-2.29-19.64-6.874-4.91-4.582-8.592-10.965-11.048-19.15-2.455-8.182-4.01-18.002-4.664-29.46-.655-11.455-.982-23.894-.982-37.314zm-67.758 0c0 22.912 1.637 43.125 4.91 60.637s8.838 32.08 16.694 43.7c7.856 11.62 18.494 20.13 31.915 25.53 13.42 5.402 30.278 7.94 50.573 7.612 19.313 0 35.597-2.783 48.855-8.348 13.258-5.564 23.978-14.157 32.16-25.777 8.184-11.62 14.076-26.105 17.677-43.454 3.6-17.348 5.4-37.315 5.4-59.901 0-23.24-1.636-43.536-4.91-60.885-3.272-17.348-8.837-31.914-16.693-43.7-7.856-11.783-18.494-20.54-31.915-26.267-13.422-5.728-30.28-8.43-50.574-8.1-19.313-.002-35.597 3.026-48.854 9.082-13.258 6.056-23.978 14.894-32.16 26.514-8.184 11.62-14.076 26.105-17.677 43.453-3.6 17.348-5.4 37.315-5.4 59.901v.002zm313.258 55.482h-64.812v76.595h64.812v-76.595zm51.555-277.907v57.94l67.758-.002V215.77h-67.758zm0 90.345V565.36c0 13.75-1.39 23.978-4.173 30.688-2.783 6.71-9.74 10.066-20.868 10.066h-5.4c-1.638 0-3.438-.328-5.402-.983v49.1c4.91.33 9.493.574 13.748.738 4.255.164 8.347.245 12.275.245 15.057 0 27.578-1.472 37.562-4.418 9.982-2.947 17.92-7.284 23.812-13.012 5.892-5.728 10.065-12.848 12.52-21.36 2.456-8.51 3.683-18.33 3.683-29.458V306.112h-67.758zm164.976 177.74h-60.884v9.33c0 12.767 1.472 24.305 4.418 34.616 2.946 10.31 8.1 19.066 15.466 26.268 7.366 7.2 17.35 12.602 29.95 16.202 12.604 3.6 28.398 5.402 47.383 5.402 14.403 0 27.578-1.473 39.526-4.42 11.947-2.946 22.258-7.855 30.933-14.73 8.674-6.874 15.466-15.466 20.376-25.777 4.91-10.31 7.365-22.504 7.365-36.58 0-19.967-4.42-35.76-13.257-47.38-8.838-11.62-23.895-21.032-45.172-28.234l-40.753-13.747c-11.457-3.6-19.23-8.02-23.322-13.257-4.092-5.237-6.138-11.13-6.138-17.675 0-9.492 3.19-16.612 9.575-21.358 6.383-4.746 13.83-7.12 22.34-7.12 11.13 0 18.903 3.192 23.322 9.575 4.42 6.383 6.63 16.448 6.63 30.197h60.883V374.36c0-23.894-7.365-42.388-22.095-55.482-14.73-13.093-37.48-19.64-68.25-19.64-17.348 0-32.16 2.128-44.435 6.384-12.275 4.255-22.34 9.983-30.196 17.185-7.857 7.2-13.585 15.63-17.186 25.286-3.6 9.656-5.4 19.885-5.4 30.688 0 18.66 4.745 33.96 14.238 45.91 9.493 11.947 23.568 21.194 42.226 27.74l47.627 17.185c6.547 2.62 12.275 6.138 17.185 10.557 4.91 4.42 7.365 10.884 7.365 19.394 0 10.475-3.11 18.33-9.33 23.57-6.218 5.236-14.565 7.855-25.04 7.855-11.457 0-20.213-3.518-26.268-10.556-6.056-7.038-9.084-16.285-9.084-27.74v-8.84z" fill="#FFF"/></g></symbol><symbol id="odoql-flat" viewBox="0 0 2524 800"><title>odoql</title><g fill-rule="evenodd"><path d="M-.313 400L204 800h2120l200-400L2324 0H204L-.313 400z" fill="currentColor"/><path d="M747.75 496.38H627.436V339.933h37.598v104.313h22.56V317.375H567.278V176.797h-22.56v140.577H364.25v126.892h22.56V339.933h37.597v104.362h22.56V339.933h37.597v104.362h22.56V339.933h37.597v104.362h22.56V339.933h37.597V496.38H544.72v126.823h22.56V518.94h37.597v104.263h22.56V518.94h37.597v104.263h22.56V518.94h37.597v104.263h22.56V496.38zM1044.637 397.713c0-23.568.572-43.535 1.718-59.902 1.146-16.366 3.437-29.786 6.874-40.26 3.436-10.476 8.346-18.086 14.73-22.833 6.382-4.746 14.81-7.12 25.285-7.12s18.904 2.374 25.287 7.12c6.383 4.747 11.293 12.357 14.73 22.832 3.437 10.474 5.728 23.894 6.874 40.26 1.146 16.368 1.718 36.335 1.718 59.903 0 23.568-.572 43.617-1.718 60.147s-3.437 29.95-6.874 40.262c-3.437 10.312-8.347 17.84-14.73 22.586-6.383 4.747-14.812 7.12-25.286 7.12-10.475 0-18.904-2.373-25.287-7.12-6.384-4.746-11.294-12.274-14.73-22.585-3.438-10.312-5.73-23.732-6.875-40.262-1.146-16.53-1.718-36.58-1.718-60.147zm-70.704 0c0 26.84 1.227 51.39 3.682 73.65 2.455 22.26 7.856 41.408 16.203 57.447 8.347 16.04 20.376 28.314 36.09 36.825 15.71 8.51 36.823 12.766 63.338 12.766 26.514 0 47.626-4.254 63.338-12.765 15.713-8.51 27.742-20.786 36.09-36.825 8.346-16.04 13.747-35.188 16.202-57.447 2.455-22.26 3.683-46.81 3.683-73.65 0-26.514-1.23-50.982-3.684-73.405-2.455-22.422-7.856-41.653-16.203-57.692-8.347-16.04-20.376-28.56-36.09-37.56-15.71-9.003-36.823-13.504-63.338-13.504-26.514 0-47.626 4.5-63.338 13.502-15.713 9.002-27.742 21.523-36.09 37.562-8.346 16.04-13.747 35.27-16.202 57.692-2.455 22.423-3.683 46.89-3.683 73.405zm413.912 147.3V573h64.813V222.426H1384.9v110.966h-.983c-7.2-10.475-15.302-18.33-24.304-23.568-9.002-5.237-19.885-7.856-32.652-7.856-27.822 0-48.28 10.884-61.374 32.651-13.093 21.767-19.64 57.2-19.64 106.3 0 49.1 6.547 84.29 19.64 105.566 13.094 21.277 33.552 31.915 61.375 31.915 13.75 0 25.288-2.454 34.617-7.364 9.33-4.91 17.758-13.584 25.286-26.023h.982zm-74.14-104.092c0-28.804 2.21-50.49 6.628-65.057 4.42-14.566 13.993-21.85 28.723-21.85 15.058 0 24.796 7.284 29.215 21.85 4.42 14.567 6.63 36.253 6.63 65.058 0 28.806-2.21 50.492-6.63 65.058-4.418 14.567-14.156 21.85-29.214 21.85-14.73 0-24.304-7.283-28.723-21.85-4.42-14.566-6.63-36.252-6.63-65.057h.002zm243.044 0c0-13.42.327-25.858.982-37.315.654-11.457 2.21-21.277 4.664-29.46 2.455-8.183 6.137-14.566 11.048-19.15 4.91-4.582 11.456-6.873 19.64-6.873 13.748 0 23.24 7.2 28.477 21.604 5.24 14.403 7.858 38.134 7.858 71.195 0 33.062-2.62 56.793-7.856 71.196-5.238 14.403-14.73 21.604-28.478 21.604-8.184 0-14.73-2.29-19.64-6.874-4.91-4.583-8.593-10.966-11.048-19.15-2.455-8.182-4.01-18.002-4.664-29.46-.655-11.456-.983-23.894-.983-37.315zm-67.758 0c0 22.914 1.636 43.127 4.91 60.64 3.273 17.512 8.837 32.078 16.693 43.7 7.857 11.62 18.495 20.13 31.916 25.53 13.42 5.402 30.28 7.938 50.573 7.61 19.313 0 35.598-2.78 48.855-8.346 13.257-5.565 23.977-14.157 32.16-25.777 8.184-11.62 14.076-26.105 17.677-43.454 3.6-17.35 5.4-37.316 5.4-59.902 0-23.24-1.636-43.534-4.91-60.883-3.273-17.35-8.837-31.915-16.694-43.7-7.855-11.783-18.493-20.54-31.913-26.267-13.42-5.73-30.28-8.43-50.573-8.102-19.313 0-35.598 3.028-48.855 9.083-13.258 6.057-23.978 14.895-32.16 26.515-8.185 11.62-14.077 26.105-17.678 43.454-3.6 17.348-5.4 37.315-5.4 59.9zm309.82-43.207c0-23.568.573-43.535 1.72-59.902 1.145-16.366 3.436-29.786 6.873-40.26 3.437-10.476 8.347-18.086 14.73-22.833 6.383-4.746 14.812-7.12 25.286-7.12 10.476 0 18.905 2.374 25.288 7.12 6.383 4.747 11.293 12.357 14.73 22.832 3.437 10.474 5.728 23.894 6.874 40.26 1.146 16.368 1.72 36.335 1.72 59.903 0 23.568-.574 43.617-1.72 60.147s-3.437 29.95-6.874 40.262c-3.437 10.312-8.347 17.84-14.73 22.586-6.383 4.747-14.812 7.12-25.287 7.12-10.473 0-18.902-2.373-25.285-7.12-6.383-4.746-11.293-12.274-14.73-22.585-3.437-10.312-5.728-23.732-6.874-40.262-1.145-16.53-1.717-36.58-1.717-60.147zm136.99 217.022l41.735-37.807-37.808-36.825c11.456-16.694 18.82-37.152 22.094-61.375 3.274-24.223 4.91-51.228 4.91-81.015 0-26.514-1.227-50.982-3.682-73.405-2.455-22.422-7.856-41.653-16.203-57.692-8.348-16.04-20.377-28.56-36.09-37.56-15.712-9.003-36.824-13.504-63.34-13.504-26.513 0-47.625 4.5-63.338 13.502-15.712 9.002-27.74 21.523-36.088 37.562-8.347 16.04-13.748 35.27-16.203 57.692-2.454 22.423-3.68 46.89-3.68 73.405 0 26.84 1.226 51.39 3.68 73.65 2.456 22.26 7.857 41.408 16.204 57.447 8.347 16.04 20.376 28.314 36.09 36.825 15.71 8.51 36.823 12.766 63.337 12.766 18.005 0 33.553-1.8 46.646-5.4l41.736 41.735zM2008.47 573h195.908v-57.938h-125.205V222.426h-70.703V573z" fill="currentColor"/></g></symbol><symbol id="odoql" viewBox="0 0 2524 800"><title>odoql</title><g fill-rule="evenodd"><path d="M-.313 400L204 800h2120l200-400L2324 0H204L-.313 400z" fill="#15AE37"/><path d="M747.75 496.38H627.436V339.933h37.598v104.313h22.56V317.375H567.278V176.797h-22.56v140.577H364.25v126.892h22.56V339.933h37.597v104.362h22.56V339.933h37.597v104.362h22.56V339.933h37.597v104.362h22.56V339.933h37.597V496.38H544.72v126.823h22.56V518.94h37.597v104.263h22.56V518.94h37.597v104.263h22.56V518.94h37.597v104.263h22.56V496.38zM1044.637 397.713c0-23.568.572-43.535 1.718-59.902 1.146-16.366 3.437-29.786 6.874-40.26 3.436-10.476 8.346-18.086 14.73-22.833 6.382-4.746 14.81-7.12 25.285-7.12s18.904 2.374 25.287 7.12c6.383 4.747 11.293 12.357 14.73 22.832 3.437 10.474 5.728 23.894 6.874 40.26 1.146 16.368 1.718 36.335 1.718 59.903 0 23.568-.572 43.617-1.718 60.147s-3.437 29.95-6.874 40.262c-3.437 10.312-8.347 17.84-14.73 22.586-6.383 4.747-14.812 7.12-25.286 7.12-10.475 0-18.904-2.373-25.287-7.12-6.384-4.746-11.294-12.274-14.73-22.585-3.438-10.312-5.73-23.732-6.875-40.262-1.146-16.53-1.718-36.58-1.718-60.147zm-70.704 0c0 26.84 1.227 51.39 3.682 73.65 2.455 22.26 7.856 41.408 16.203 57.447 8.347 16.04 20.376 28.314 36.09 36.825 15.71 8.51 36.823 12.766 63.338 12.766 26.514 0 47.626-4.254 63.338-12.765 15.713-8.51 27.742-20.786 36.09-36.825 8.346-16.04 13.747-35.188 16.202-57.447 2.455-22.26 3.683-46.81 3.683-73.65 0-26.514-1.23-50.982-3.684-73.405-2.455-22.422-7.856-41.653-16.203-57.692-8.347-16.04-20.376-28.56-36.09-37.56-15.71-9.003-36.823-13.504-63.338-13.504-26.514 0-47.626 4.5-63.338 13.502-15.713 9.002-27.742 21.523-36.09 37.562-8.346 16.04-13.747 35.27-16.202 57.692-2.455 22.423-3.683 46.89-3.683 73.405zm413.912 147.3V573h64.813V222.426H1384.9v110.966h-.983c-7.2-10.475-15.302-18.33-24.304-23.568-9.002-5.237-19.885-7.856-32.652-7.856-27.822 0-48.28 10.884-61.374 32.651-13.093 21.767-19.64 57.2-19.64 106.3 0 49.1 6.547 84.29 19.64 105.566 13.094 21.277 33.552 31.915 61.375 31.915 13.75 0 25.288-2.454 34.617-7.364 9.33-4.91 17.758-13.584 25.286-26.023h.982zm-74.14-104.092c0-28.804 2.21-50.49 6.628-65.057 4.42-14.566 13.993-21.85 28.723-21.85 15.058 0 24.796 7.284 29.215 21.85 4.42 14.567 6.63 36.253 6.63 65.058 0 28.806-2.21 50.492-6.63 65.058-4.418 14.567-14.156 21.85-29.214 21.85-14.73 0-24.304-7.283-28.723-21.85-4.42-14.566-6.63-36.252-6.63-65.057h.002zm243.044 0c0-13.42.327-25.858.982-37.315.654-11.457 2.21-21.277 4.664-29.46 2.455-8.183 6.137-14.566 11.048-19.15 4.91-4.582 11.456-6.873 19.64-6.873 13.748 0 23.24 7.2 28.477 21.604 5.24 14.403 7.858 38.134 7.858 71.195 0 33.062-2.62 56.793-7.856 71.196-5.238 14.403-14.73 21.604-28.478 21.604-8.184 0-14.73-2.29-19.64-6.874-4.91-4.583-8.593-10.966-11.048-19.15-2.455-8.182-4.01-18.002-4.664-29.46-.655-11.456-.983-23.894-.983-37.315zm-67.758 0c0 22.914 1.636 43.127 4.91 60.64 3.273 17.512 8.837 32.078 16.693 43.7 7.857 11.62 18.495 20.13 31.916 25.53 13.42 5.402 30.28 7.938 50.573 7.61 19.313 0 35.598-2.78 48.855-8.346 13.257-5.565 23.977-14.157 32.16-25.777 8.184-11.62 14.076-26.105 17.677-43.454 3.6-17.35 5.4-37.316 5.4-59.902 0-23.24-1.636-43.534-4.91-60.883-3.273-17.35-8.837-31.915-16.694-43.7-7.855-11.783-18.493-20.54-31.913-26.267-13.42-5.73-30.28-8.43-50.573-8.102-19.313 0-35.598 3.028-48.855 9.083-13.258 6.057-23.978 14.895-32.16 26.515-8.185 11.62-14.077 26.105-17.678 43.454-3.6 17.348-5.4 37.315-5.4 59.9zm309.82-43.207c0-23.568.573-43.535 1.72-59.902 1.145-16.366 3.436-29.786 6.873-40.26 3.437-10.476 8.347-18.086 14.73-22.833 6.383-4.746 14.812-7.12 25.286-7.12 10.476 0 18.905 2.374 25.288 7.12 6.383 4.747 11.293 12.357 14.73 22.832 3.437 10.474 5.728 23.894 6.874 40.26 1.146 16.368 1.72 36.335 1.72 59.903 0 23.568-.574 43.617-1.72 60.147s-3.437 29.95-6.874 40.262c-3.437 10.312-8.347 17.84-14.73 22.586-6.383 4.747-14.812 7.12-25.287 7.12-10.473 0-18.902-2.373-25.285-7.12-6.383-4.746-11.293-12.274-14.73-22.585-3.437-10.312-5.728-23.732-6.874-40.262-1.145-16.53-1.717-36.58-1.717-60.147zm136.99 217.022l41.735-37.807-37.808-36.825c11.456-16.694 18.82-37.152 22.094-61.375 3.274-24.223 4.91-51.228 4.91-81.015 0-26.514-1.227-50.982-3.682-73.405-2.455-22.422-7.856-41.653-16.203-57.692-8.348-16.04-20.377-28.56-36.09-37.56-15.712-9.003-36.824-13.504-63.34-13.504-26.513 0-47.625 4.5-63.338 13.502-15.712 9.002-27.74 21.523-36.088 37.562-8.347 16.04-13.748 35.27-16.203 57.692-2.454 22.423-3.68 46.89-3.68 73.405 0 26.84 1.226 51.39 3.68 73.65 2.456 22.26 7.857 41.408 16.204 57.447 8.347 16.04 20.376 28.314 36.09 36.825 15.71 8.51 36.823 12.766 63.337 12.766 18.005 0 33.553-1.8 46.646-5.4l41.736 41.735zM2008.47 573h195.908v-57.938h-125.205V222.426h-70.703V573z" fill="#FFF"/></g></symbol><symbol id="redwire-flat" viewBox="0 0 2805 800"><title>redwire</title><g fill-rule="evenodd"><path d="M.687 399L205 799h2400l200-400L2605-1H205L.687 399z" fill="currentColor"/><path d="M440.295 462.325c-.197-26.9.16-38.093 2.21-50.704 2.498-15.35 7.374-26.84 15.598-35.897 8.005-8.815 24.47-14.24 61.8-21.232 3.022-.565 13.766-2.55 14.22-2.634 5.863-1.09 10.42-1.955 14.91-2.842 11.62-2.295 21.593-4.51 31.178-7 46.133-11.984 80.57-29.996 106.215-60.177 5.364-6.313 4.595-15.78-1.718-21.144-6.313-5.364-15.78-4.595-21.144 1.718-21.01 24.728-50.202 39.997-90.895 50.567-8.944 2.324-18.365 4.417-29.448 6.606-4.36.86-8.813 1.707-14.574 2.777-.42.078-11.2 2.07-14.268 2.644-20.318 3.806-32.507 6.56-43.8 10.28-15.176 5-26.555 11.318-34.684 20.27-12.507 13.773-19.635 30.573-23 51.25-2.42 14.88-2.808 27.088-2.598 55.75l.023 3.366c-.158-2.456-.336-4.983-.533-7.59-.24-3.17-.45-5.805-.9-11.296-2.323-28.357-2.808-40.378-1.5-54.494 1.63-17.613 6.402-31.734 15.404-43.925 9.116-12.343 18.902-21.905 30.35-30.12 9.32-6.687 18.71-11.962 34.805-19.974.756-.376 10.77-5.33 13.8-6.85 5.49-2.753 10.105-5.14 14.614-7.578 11.333-6.133 21.42-12.322 31.336-19.42 24.204-17.327 46.45-39.543 68.565-69.826 4.886-6.69 3.424-16.074-3.267-20.96-6.69-4.885-16.074-3.423-20.96 3.268-20.255 27.735-40.227 47.68-61.8 63.123-8.822 6.316-17.858 11.86-28.15 17.43-4.202 2.272-8.55 4.52-13.783 7.144-2.947 1.48-12.905 6.406-13.724 6.814-17.425 8.674-27.986 14.608-38.925 22.457-13.952 10.013-25.99 21.773-36.992 36.674-12.518 16.952-19.04 36.252-21.144 58.98-1.525 16.462-.996 29.573 1.473 59.71.444 5.428.652 8.02.886 11.108 2.057 27.225 1.795 44.287-1.87 60.514-4.433 19.635-13.963 35.784-30.694 49.944-6.89 5.83-7.108 16.382-.464 22.492l41.87 38.5c5.626 5.172 14.24 5.29 20.003.27 29.114-25.346 43.61-55.302 51.017-95.63 1.818-9.894 2.757-16.775 5.02-35.25 3.348-27.32 5.584-39.528 10.396-52.19 5.85-15.395 14.77-26.647 28.946-35.283 6.933-4.225 16.4-6.17 29.428-6.07 10.828.083 19.28 1.022 44.295 4.48 16.857 2.332 26.114 3.434 36.672 4.163 39.874 2.754 70.43-3.656 96.254-24.764 6.413-5.244 7.363-14.693 2.12-21.108-5.243-6.414-14.693-7.363-21.107-2.12-18.897 15.445-42.23 20.34-75.2 18.062-9.676-.668-18.423-1.71-34.63-3.95-26.457-3.66-35.526-4.666-48.174-4.763-18.132-.14-32.856 2.888-45.268 10.448-20.092 12.24-33.245 28.833-41.382 50.247-2.917 7.675-5.01 14.89-6.815 23.74zM897.466 221.426V572h70.703V423.718h37.807c14.73 0 25.204 3.928 31.423 11.784 6.22 7.856 9.657 18.658 10.31 32.406l1.966 67.267c.327 6.874.982 13.502 1.964 19.886.98 6.384 3.273 12.03 6.873 16.94h76.597v-2.946c-6.547-3.6-10.802-10.31-12.766-20.13-1.31-9.82-2.292-24.06-2.947-42.718-.327-9.493-.654-18.085-.98-25.778-.33-7.692-.82-14.81-1.474-21.358-1.965-19.64-7.038-33.88-15.22-42.717-8.185-8.838-21.114-14.566-38.79-17.185v-.982c19.967-4.255 34.697-13.83 44.19-28.724 9.492-14.893 14.238-34.124 14.238-57.692.002-30.442-8.182-53.11-24.548-68.003-16.367-14.894-39.28-22.34-68.74-22.34H897.466zm70.703 153.192V273.472h33.388c32.733 0 49.1 16.203 49.1 48.61 0 18.984-4.583 32.487-13.748 40.507-9.166 8.018-22.26 12.028-39.28 12.028h-29.46zm327.497 35.352h-69.23v-10.31c0-6.22.57-12.44 1.717-18.66 1.146-6.218 3.028-11.865 5.647-16.938 2.62-5.074 6.138-9.166 10.557-12.276 4.42-3.11 10.065-4.664 16.94-4.664 6.874 0 12.52 1.39 16.94 4.173 4.418 2.783 7.855 6.874 10.31 12.275 2.455 5.402 4.173 11.948 5.156 19.64.982 7.693 1.636 16.613 1.964 26.76zm-69.23 40.262h134.042l-.002-15.22c0-20.296-1.31-38.708-3.928-55.238s-7.528-30.606-14.73-42.226c-7.2-11.62-17.103-20.622-29.705-27.005-12.602-6.384-28.723-9.575-48.363-9.575-22.914 0-41.244 3.764-54.993 11.293-13.75 7.53-24.305 17.677-31.67 30.443-7.365 12.766-12.275 27.332-14.73 43.7-2.455 16.366-3.682 33.387-3.682 51.063 0 16.694.736 33.388 2.21 50.082 1.472 16.694 5.482 31.75 12.03 45.172 6.545 13.42 16.692 24.223 30.44 32.406 13.75 8.183 32.897 12.275 57.447 12.275 32.407 0 56.138-8.02 71.196-24.058 15.058-16.04 23.24-39.444 24.55-70.213h-60.883c-1.965 16.693-5.565 29.132-10.803 37.315-5.237 8.183-13.584 12.275-25.04 12.275-6.22 0-11.457-1.718-15.713-5.156-4.254-3.437-7.69-8.02-10.31-13.747-2.618-5.73-4.5-12.275-5.646-19.64-1.146-7.366-1.718-14.976-1.718-22.832v-21.113zm304.91 93.78V572h64.812l-.002-350.574H1528.4v110.966h-.982c-7.2-10.475-15.302-18.33-24.304-23.568-9.002-5.237-19.885-7.856-32.65-7.856-27.825 0-48.283 10.884-61.376 32.651-13.094 21.767-19.64 57.2-19.64 106.3 0 49.1 6.546 84.29 19.64 105.566 13.093 21.277 33.55 31.915 61.375 31.915 13.748 0 25.286-2.454 34.615-7.364 9.33-4.91 17.758-13.584 25.286-26.023h.983zm-74.14-104.09c-.002-28.806 2.208-50.492 6.627-65.06 4.42-14.565 13.993-21.848 28.723-21.848 15.058 0 24.796 7.283 29.215 21.85 4.42 14.566 6.63 36.252 6.63 65.057-.002 28.806-2.21 50.492-6.63 65.058-4.42 14.567-14.157 21.85-29.215 21.85-14.73 0-24.304-7.283-28.723-21.85-4.42-14.566-6.63-36.252-6.63-65.057h.002zm164.974-132.08L1679.63 572h78.56l32.897-187.562h.983L1826.928 572h77.087l56.957-264.158h-64.813l-31.916 187.562h-.98L1828.4 307.842h-73.65l-32.898 187.562h-.982l-30.933-187.562h-67.76zm367.27-90.344v57.938h67.757v-57.938h-67.757zm0 90.344V572h67.757V307.842h-67.757zm115.384 0V572h67.76V413.407c0-8.838 1.47-16.285 4.418-22.34 2.946-6.056 6.873-10.966 11.784-14.73 4.91-3.765 10.31-6.465 16.203-8.102 5.89-1.637 11.782-2.455 17.675-2.455 3.6 0 7.12.082 10.556.246 3.438.163 6.957.41 10.557.736V301.95c-1.964-.327-4.01-.573-6.137-.736-2.128-.164-4.173-.246-6.138-.246-14.075 0-26.022 3.846-35.843 11.538-9.82 7.693-18.167 17.922-25.042 30.688h-.982v-35.352h-64.812zm290.673 102.128h-69.23v-10.31c0-6.22.57-12.44 1.717-18.66 1.146-6.218 3.028-11.865 5.646-16.938 2.62-5.074 6.138-9.166 10.557-12.276 4.42-3.11 10.065-4.664 16.94-4.664 6.874 0 12.52 1.39 16.94 4.173 4.418 2.783 7.855 6.874 10.31 12.275 2.455 5.402 4.173 11.948 5.155 19.64.983 7.693 1.637 16.613 1.965 26.76zm-69.23 40.262h134.04v-15.22c0-20.296-1.308-38.708-3.927-55.238-2.618-16.53-7.528-30.606-14.73-42.226-7.2-11.62-17.103-20.622-29.705-27.005-12.602-6.384-28.723-9.575-48.363-9.575-22.914 0-41.244 3.764-54.993 11.293-13.75 7.53-24.305 17.677-31.67 30.443-7.365 12.766-12.275 27.332-14.73 43.7-2.455 16.366-3.682 33.387-3.682 51.063 0 16.694.736 33.388 2.21 50.082 1.472 16.694 5.482 31.75 12.028 45.172 6.547 13.42 16.694 24.223 30.443 32.406 13.747 8.183 32.895 12.275 57.446 12.275 32.406 0 56.137-8.02 71.194-24.058 15.058-16.04 23.24-39.444 24.55-70.213h-60.883c-1.965 16.693-5.565 29.132-10.803 37.315-5.237 8.183-13.584 12.275-25.04 12.275-6.22 0-11.457-1.718-15.713-5.156-4.254-3.437-7.69-8.02-10.31-13.747-2.618-5.73-4.5-12.275-5.646-19.64-1.146-7.366-1.718-14.976-1.718-22.832v-21.113z" fill="currentColor"/></g></symbol><symbol id="redwire" viewBox="0 0 2805 800"><title>redwire</title><g fill-rule="evenodd"><path d="M.687 399L205 799h2400l200-400L2605-1H205L.687 399z" fill="#CB4B4B"/><path d="M440.295 462.325c-.197-26.9.16-38.093 2.21-50.704 2.498-15.35 7.374-26.84 15.598-35.897 8.005-8.815 24.47-14.24 61.8-21.232 3.022-.565 13.766-2.55 14.22-2.634 5.863-1.09 10.42-1.955 14.91-2.842 11.62-2.295 21.593-4.51 31.178-7 46.133-11.984 80.57-29.996 106.215-60.177 5.364-6.313 4.595-15.78-1.718-21.144-6.313-5.364-15.78-4.595-21.144 1.718-21.01 24.728-50.202 39.997-90.895 50.567-8.944 2.324-18.365 4.417-29.448 6.606-4.36.86-8.813 1.707-14.574 2.777-.42.078-11.2 2.07-14.268 2.644-20.318 3.806-32.507 6.56-43.8 10.28-15.176 5-26.555 11.318-34.684 20.27-12.507 13.773-19.635 30.573-23 51.25-2.42 14.88-2.808 27.088-2.598 55.75l.023 3.366c-.158-2.456-.336-4.983-.533-7.59-.24-3.17-.45-5.805-.9-11.296-2.323-28.357-2.808-40.378-1.5-54.494 1.63-17.613 6.402-31.734 15.404-43.925 9.116-12.343 18.902-21.905 30.35-30.12 9.32-6.687 18.71-11.962 34.805-19.974.756-.376 10.77-5.33 13.8-6.85 5.49-2.753 10.105-5.14 14.614-7.578 11.333-6.133 21.42-12.322 31.336-19.42 24.204-17.327 46.45-39.543 68.565-69.826 4.886-6.69 3.424-16.074-3.267-20.96-6.69-4.885-16.074-3.423-20.96 3.268-20.255 27.735-40.227 47.68-61.8 63.123-8.822 6.316-17.858 11.86-28.15 17.43-4.202 2.272-8.55 4.52-13.783 7.144-2.947 1.48-12.905 6.406-13.724 6.814-17.425 8.674-27.986 14.608-38.925 22.457-13.952 10.013-25.99 21.773-36.992 36.674-12.518 16.952-19.04 36.252-21.144 58.98-1.525 16.462-.996 29.573 1.473 59.71.444 5.428.652 8.02.886 11.108 2.057 27.225 1.795 44.287-1.87 60.514-4.433 19.635-13.963 35.784-30.694 49.944-6.89 5.83-7.108 16.382-.464 22.492l41.87 38.5c5.626 5.172 14.24 5.29 20.003.27 29.114-25.346 43.61-55.302 51.017-95.63 1.818-9.894 2.757-16.775 5.02-35.25 3.348-27.32 5.584-39.528 10.396-52.19 5.85-15.395 14.77-26.647 28.946-35.283 6.933-4.225 16.4-6.17 29.428-6.07 10.828.083 19.28 1.022 44.295 4.48 16.857 2.332 26.114 3.434 36.672 4.163 39.874 2.754 70.43-3.656 96.254-24.764 6.413-5.244 7.363-14.693 2.12-21.108-5.243-6.414-14.693-7.363-21.107-2.12-18.897 15.445-42.23 20.34-75.2 18.062-9.676-.668-18.423-1.71-34.63-3.95-26.457-3.66-35.526-4.666-48.174-4.763-18.132-.14-32.856 2.888-45.268 10.448-20.092 12.24-33.245 28.833-41.382 50.247-2.917 7.675-5.01 14.89-6.815 23.74zM897.466 221.426V572h70.703V423.718h37.807c14.73 0 25.204 3.928 31.423 11.784 6.22 7.856 9.657 18.658 10.31 32.406l1.966 67.267c.327 6.874.982 13.502 1.964 19.886.98 6.384 3.273 12.03 6.873 16.94h76.597v-2.946c-6.547-3.6-10.802-10.31-12.766-20.13-1.31-9.82-2.292-24.06-2.947-42.718-.327-9.493-.654-18.085-.98-25.778-.33-7.692-.82-14.81-1.474-21.358-1.965-19.64-7.038-33.88-15.22-42.717-8.185-8.838-21.114-14.566-38.79-17.185v-.982c19.967-4.255 34.697-13.83 44.19-28.724 9.492-14.893 14.238-34.124 14.238-57.692.002-30.442-8.182-53.11-24.548-68.003-16.367-14.894-39.28-22.34-68.74-22.34H897.466zm70.703 153.192V273.472h33.388c32.733 0 49.1 16.203 49.1 48.61 0 18.984-4.583 32.487-13.748 40.507-9.166 8.018-22.26 12.028-39.28 12.028h-29.46zm327.497 35.352h-69.23v-10.31c0-6.22.57-12.44 1.717-18.66 1.146-6.218 3.028-11.865 5.647-16.938 2.62-5.074 6.138-9.166 10.557-12.276 4.42-3.11 10.065-4.664 16.94-4.664 6.874 0 12.52 1.39 16.94 4.173 4.418 2.783 7.855 6.874 10.31 12.275 2.455 5.402 4.173 11.948 5.156 19.64.982 7.693 1.636 16.613 1.964 26.76zm-69.23 40.262h134.042l-.002-15.22c0-20.296-1.31-38.708-3.928-55.238s-7.528-30.606-14.73-42.226c-7.2-11.62-17.103-20.622-29.705-27.005-12.602-6.384-28.723-9.575-48.363-9.575-22.914 0-41.244 3.764-54.993 11.293-13.75 7.53-24.305 17.677-31.67 30.443-7.365 12.766-12.275 27.332-14.73 43.7-2.455 16.366-3.682 33.387-3.682 51.063 0 16.694.736 33.388 2.21 50.082 1.472 16.694 5.482 31.75 12.03 45.172 6.545 13.42 16.692 24.223 30.44 32.406 13.75 8.183 32.897 12.275 57.447 12.275 32.407 0 56.138-8.02 71.196-24.058 15.058-16.04 23.24-39.444 24.55-70.213h-60.883c-1.965 16.693-5.565 29.132-10.803 37.315-5.237 8.183-13.584 12.275-25.04 12.275-6.22 0-11.457-1.718-15.713-5.156-4.254-3.437-7.69-8.02-10.31-13.747-2.618-5.73-4.5-12.275-5.646-19.64-1.146-7.366-1.718-14.976-1.718-22.832v-21.113zm304.91 93.78V572h64.812l-.002-350.574H1528.4v110.966h-.982c-7.2-10.475-15.302-18.33-24.304-23.568-9.002-5.237-19.885-7.856-32.65-7.856-27.825 0-48.283 10.884-61.376 32.651-13.094 21.767-19.64 57.2-19.64 106.3 0 49.1 6.546 84.29 19.64 105.566 13.093 21.277 33.55 31.915 61.375 31.915 13.748 0 25.286-2.454 34.615-7.364 9.33-4.91 17.758-13.584 25.286-26.023h.983zm-74.14-104.09c-.002-28.806 2.208-50.492 6.627-65.06 4.42-14.565 13.993-21.848 28.723-21.848 15.058 0 24.796 7.283 29.215 21.85 4.42 14.566 6.63 36.252 6.63 65.057-.002 28.806-2.21 50.492-6.63 65.058-4.42 14.567-14.157 21.85-29.215 21.85-14.73 0-24.304-7.283-28.723-21.85-4.42-14.566-6.63-36.252-6.63-65.057h.002zm164.974-132.08L1679.63 572h78.56l32.897-187.562h.983L1826.928 572h77.087l56.957-264.158h-64.813l-31.916 187.562h-.98L1828.4 307.842h-73.65l-32.898 187.562h-.982l-30.933-187.562h-67.76zm367.27-90.344v57.938h67.757v-57.938h-67.757zm0 90.344V572h67.757V307.842h-67.757zm115.384 0V572h67.76V413.407c0-8.838 1.47-16.285 4.418-22.34 2.946-6.056 6.873-10.966 11.784-14.73 4.91-3.765 10.31-6.465 16.203-8.102 5.89-1.637 11.782-2.455 17.675-2.455 3.6 0 7.12.082 10.556.246 3.438.163 6.957.41 10.557.736V301.95c-1.964-.327-4.01-.573-6.137-.736-2.128-.164-4.173-.246-6.138-.246-14.075 0-26.022 3.846-35.843 11.538-9.82 7.693-18.167 17.922-25.042 30.688h-.982v-35.352h-64.812zm290.673 102.128h-69.23v-10.31c0-6.22.57-12.44 1.717-18.66 1.146-6.218 3.028-11.865 5.646-16.938 2.62-5.074 6.138-9.166 10.557-12.276 4.42-3.11 10.065-4.664 16.94-4.664 6.874 0 12.52 1.39 16.94 4.173 4.418 2.783 7.855 6.874 10.31 12.275 2.455 5.402 4.173 11.948 5.155 19.64.983 7.693 1.637 16.613 1.965 26.76zm-69.23 40.262h134.04v-15.22c0-20.296-1.308-38.708-3.927-55.238-2.618-16.53-7.528-30.606-14.73-42.226-7.2-11.62-17.103-20.622-29.705-27.005-12.602-6.384-28.723-9.575-48.363-9.575-22.914 0-41.244 3.764-54.993 11.293-13.75 7.53-24.305 17.677-31.67 30.443-7.365 12.766-12.275 27.332-14.73 43.7-2.455 16.366-3.682 33.387-3.682 51.063 0 16.694.736 33.388 2.21 50.082 1.472 16.694 5.482 31.75 12.028 45.172 6.547 13.42 16.694 24.223 30.443 32.406 13.747 8.183 32.895 12.275 57.446 12.275 32.406 0 56.137-8.02 71.194-24.058 15.058-16.04 23.24-39.444 24.55-70.213h-60.883c-1.965 16.693-5.565 29.132-10.803 37.315-5.237 8.183-13.584 12.275-25.04 12.275-6.22 0-11.457-1.718-15.713-5.156-4.254-3.437-7.69-8.02-10.31-13.747-2.618-5.73-4.5-12.275-5.646-19.64-1.146-7.366-1.718-14.976-1.718-22.832v-21.113z" fill="#FFF"/></g></symbol><symbol id="tugboat" viewBox="0 0 2944 800"><title>tugboat</title><g fill-rule="evenodd"><path d="M-.313 400L204 800h2540l200-400L2744 0H204L-.313 400z" fill="#198FDB"/><g fill="#FFF"><path d="M613.062 202.853s-2.99 20.347-2.99 35.165v101.897c8.35-2.136 23.93-10.422 22.96-35.216 31.944-.032 63.888.145 95.832-.116.334 1.855-.876 112.508-.876 112.508 4.957-1.835 109.253-39.563 109.253-39.563l22.793 27.628c-5.322 24.492-1.722 49.83-2.63 74.665.835 17.55-2.65 35.977-13.347 50.308-8.996 11.642-20.684 21.93-34.92 26.452-13.805 4.44-28.217 6.368-42.462 8.88-54.507 9.088-109.776 13.507-165.034 13.403-66.09-.063-223.683.563-236.31-.667-20.476-2.502-37.403-21.387-37.194-42.085-1.722-23.064 18.325-43.513 40.836-45.357-7.316-3.606-14.6-7.285-21.728-11.267 2.37-5.295 13.63-29.214 16.458-36.134 6.105.198 30.003 4.19 30.003 4.19s.814-53.227 0-77.177c.24-4.93-1.826-9.38-3.298-13.925 2.786-1.042 5.583-2.543 8.63-2.45 2.432.564 4.54 1.97 6.648 3.263-4.205 10.047-3.298 21.23-3.485 31.88.114 19.47.125 38.94.125 58.407l84.927 4.537v-118.18c29.857-.27 89.436 0 89.436 0l.042-95.884c-.115-11.767.313-23.805-3.256-35.165 11.417-1.396 28.098-.677 39.588 0zM683.04 314.1c6.272-.01 12.555-.01 18.837 0-.073 8.556-.02 17.123-.27 25.69-6.2.178-12.39.303-18.567.428V314.1zm29.857-.01c2.703.01 8.12.01 10.833.01v26.16c-2.734-.136-8.192-.428-10.916-.574.25-8.536.365-17.07.083-25.597zM492.063 343.28h25.046v34.393c-8.36-.01-16.698 0-25.047 0v-34.393zm29.22 0h25.047v34.393c-8.36-.01-16.698 0-25.046 0v-34.393zm29.22 0h26.09v34.393c-8.703-.01-17.396-.01-26.09 0v-34.393z" id="Shape"/><path d="M361.844 368.597c10.258-.25 20.527-.354 30.786-.094.125 7.807.156 15.634.063 23.46-10.26.24-20.528.345-30.786.095-.126-7.827-.157-15.644-.063-23.46z" id="Shape"/><path d="M372.29 394.705c6.617-.198 13.233-.313 19.86-.396.302 6.48.49 12.974.605 19.488-6.93.167-13.848.323-20.778.407.094-6.504.115-12.997.313-19.5z"/></g><path d="M1270.272 222.426h-223.896v57.938h76.596V573h70.704V280.364h76.596v-57.938zm127.66 319.64V573h64.812V308.842h-67.758V484.13c0 29.132-11.948 43.698-35.844 43.698-10.147 0-17.512-2.7-22.095-8.1-4.582-5.403-6.873-14.977-6.873-28.725v-182.16h-67.758V504.75c0 26.515 5.81 45.418 17.43 56.712 11.62 11.293 28.232 16.94 49.836 16.94 14.73 0 27.824-2.783 39.28-8.348 11.457-5.565 20.786-14.894 27.987-27.987h.98zm172.34-92.798c0-17.676.41-32.65 1.228-44.926.818-12.276 2.537-22.095 5.156-29.46 2.618-7.366 6.22-12.685 10.802-15.958 4.582-3.273 10.638-4.91 18.166-4.91 13.42 0 22.668 6.71 27.742 20.13 5.074 13.422 7.61 36.17 7.61 68.25 0 11.13-.572 21.358-1.718 30.688-1.146 9.33-3.11 17.266-5.892 23.813-2.782 6.547-6.547 11.702-11.293 15.466-4.746 3.766-10.72 5.648-17.922 5.648-7.2 0-13.01-1.882-17.43-5.647-4.418-3.763-7.855-8.836-10.31-15.22-2.455-6.383-4.092-13.666-4.91-21.85-.818-8.182-1.227-16.857-1.227-26.022zm135.517-140.426h-64.813v29.46h-.983c-6.546-13.748-14.893-23.24-25.04-28.478-10.148-5.237-19.968-7.856-29.46-7.856-18.33 0-32.98 4.092-43.945 12.275-10.967 8.183-19.314 18.74-25.042 31.67-5.728 12.93-9.493 27.414-11.293 43.453-1.8 16.04-2.7 31.75-2.7 47.136 0 48.118 6.792 82.406 20.376 102.864 13.585 20.46 33.798 30.688 60.64 30.688 10.802 0 21.194-2.946 31.178-8.838 9.984-5.892 18.412-13.748 25.286-23.568h.983v34.86c0 13.094-2.783 24.06-8.348 32.898-5.565 8.838-15.22 13.257-28.97 13.257-4.255 0-8.265-.655-12.03-1.964-3.763-1.31-7.282-3.11-10.556-5.402-6.874-4.91-10.31-11.62-10.31-20.13h-64.813c0 22.585 7.776 40.015 23.324 52.29 15.548 12.276 37.725 18.413 66.53 18.413 39.608 0 67.84-8.51 84.698-25.53 16.858-17.022 25.287-42.554 25.287-76.597v-250.9zm47.626-86.416V573h64.812v-27.987h.98c7.53 12.44 15.96 21.113 25.288 26.023 9.33 4.91 20.867 7.365 34.615 7.365 27.825 0 48.283-10.637 61.377-31.914 13.093-21.277 19.64-56.465 19.64-105.565 0-49.1-6.547-84.533-19.64-106.3-13.094-21.768-33.552-32.652-61.376-32.652-12.765 0-23.648 2.62-32.65 7.856-9.002 5.237-17.103 13.093-24.304 23.568h-.982V222.426h-67.758zm67.758 218.495c0-28.804 2.21-50.49 6.628-65.057 4.42-14.566 14.157-21.85 29.215-21.85 14.73 0 24.304 7.284 28.723 21.85 4.42 14.567 6.63 36.253 6.63 65.058 0 28.806-2.21 50.492-6.63 65.058-4.42 14.567-13.993 21.85-28.724 21.85-15.057 0-24.795-7.283-29.214-21.85-4.42-14.566-6.628-36.252-6.628-65.057zm236.662 0c0-13.42.327-25.858.982-37.315.654-11.457 2.21-21.277 4.664-29.46 2.455-8.183 6.137-14.566 11.048-19.15 4.91-4.582 11.456-6.873 19.64-6.873 13.748 0 23.24 7.2 28.477 21.604 5.238 14.403 7.856 38.134 7.856 71.195 0 33.062-2.618 56.793-7.856 71.196-5.237 14.403-14.73 21.604-28.477 21.604-8.184 0-14.73-2.29-19.64-6.874-4.91-4.583-8.593-10.966-11.048-19.15-2.455-8.182-4.01-18.002-4.664-29.46-.655-11.456-.983-23.894-.983-37.315zm-67.758 0c0 22.914 1.636 43.127 4.91 60.64 3.273 17.512 8.837 32.078 16.693 43.7 7.858 11.62 18.496 20.13 31.917 25.53 13.42 5.402 30.278 7.938 50.572 7.61 19.312 0 35.597-2.78 48.854-8.346 13.257-5.565 23.977-14.157 32.16-25.777 8.184-11.62 14.076-26.105 17.676-43.454 3.6-17.35 5.4-37.316 5.4-59.902 0-23.24-1.635-43.534-4.91-60.883-3.272-17.35-8.836-31.915-16.693-43.7-7.856-11.783-18.494-20.54-31.915-26.267-13.42-5.73-30.278-8.43-50.573-8.102-19.313 0-35.598 3.028-48.855 9.083-13.257 6.057-23.977 14.895-32.16 26.515-8.184 11.62-14.076 26.105-17.677 43.454-3.6 17.348-5.4 37.315-5.4 59.9zm367.758 0v52.047c0 7.2-1.31 13.42-3.927 18.658-2.62 5.237-5.975 9.493-10.067 12.766-4.092 3.274-8.592 5.647-13.503 7.12-4.91 1.474-9.656 2.21-14.238 2.21-9.166 0-15.712-3.6-19.64-10.802-3.93-7.2-5.892-15.876-5.892-26.023 0-11.784 2.945-21.113 8.837-27.987 5.893-6.874 15.712-11.784 29.46-14.73 4.256-.982 9.002-2.537 14.24-4.664 5.237-2.128 10.147-4.992 14.73-8.593zm-123.73-51.063h60.882v-7.365c0-10.475 2.62-18.822 7.857-25.04 5.237-6.22 13.093-9.33 23.568-9.33 11.456 0 19.558 2.864 24.304 8.592 4.746 5.73 7.12 13.667 7.12 23.814 0 8.838-1.964 15.548-5.892 20.13-3.93 4.584-10.966 8.184-21.114 10.803l-38.296 10.312c-11.785 3.273-21.85 7.038-30.197 11.293-8.347 4.255-15.22 9.574-20.622 15.957-5.4 6.384-9.41 14.076-12.03 23.077-2.618 9-3.927 19.72-3.927 32.16 0 8.838 1.145 17.758 3.437 26.76 2.29 9 5.89 17.103 10.802 24.304 4.91 7.2 11.456 12.848 19.64 16.94 8.183 4.09 18.166 6.137 29.95 6.137 16.367 0 29.706-2.045 40.017-6.136 10.31-4.092 19.394-13.012 27.25-26.76h.983c.98 4.583 2.045 9.247 3.19 13.993 1.147 4.747 2.865 9.248 5.157 13.503h64.81c-3.272-7.856-5.48-15.22-6.627-22.095-1.146-6.874-1.72-16.53-1.72-28.97V382.984c0-11.784-1.226-22.668-3.68-32.651-2.456-9.984-7.12-18.577-13.995-25.778-6.874-7.2-16.53-12.766-28.97-16.694-12.437-3.928-28.804-5.892-49.1-5.892-12.765 0-24.794 1.39-36.087 4.173-11.293 2.784-21.113 7.366-29.46 13.75-8.347 6.383-14.975 14.73-19.885 25.04-4.91 10.312-7.365 23.16-7.365 38.544v6.383zm251.39-156.63v75.615h-34.37v46.154h34.37v151.228c0 13.42.82 24.55 2.456 33.388 1.636 8.838 4.664 15.957 9.083 21.36 4.42 5.4 10.802 9 19.15 10.8 8.346 1.8 19.066 2.7 32.16 2.7 7.856 0 15.302-.244 22.34-.736 7.038-.49 14.32-.736 21.85-.736v-47.136c-2.292.327-4.747.573-7.365.736-2.62.164-5.238.246-7.856.246-9.82 0-16.285-2.21-19.395-6.63-3.11-4.418-4.666-11.864-4.666-22.34v-142.88h39.28v-46.154h-39.28v-75.614h-67.757z" fill="#FFF"/></g></symbol><symbol id="tugboat-flat" viewBox="0 0 2944 800"><title>tugboat</title><g fill-rule="evenodd"><path d="M-.313 400L204 800h2540l200-400L2744 0H204L-.313 400z" fill="currentColor"/><g fill="currentColor"><path d="M613.062 202.853s-2.99 20.347-2.99 35.165v101.897c8.35-2.136 23.93-10.422 22.96-35.216 31.944-.032 63.888.145 95.832-.116.334 1.855-.876 112.508-.876 112.508 4.957-1.835 109.253-39.563 109.253-39.563l22.793 27.628c-5.322 24.492-1.722 49.83-2.63 74.665.835 17.55-2.65 35.977-13.347 50.308-8.996 11.642-20.684 21.93-34.92 26.452-13.805 4.44-28.217 6.368-42.462 8.88-54.507 9.088-109.776 13.507-165.034 13.403-66.09-.063-223.683.563-236.31-.667-20.476-2.502-37.403-21.387-37.194-42.085-1.722-23.064 18.325-43.513 40.836-45.357-7.316-3.606-14.6-7.285-21.728-11.267 2.37-5.295 13.63-29.214 16.458-36.134 6.105.198 30.003 4.19 30.003 4.19s.814-53.227 0-77.177c.24-4.93-1.826-9.38-3.298-13.925 2.786-1.042 5.583-2.543 8.63-2.45 2.432.564 4.54 1.97 6.648 3.263-4.205 10.047-3.298 21.23-3.485 31.88.114 19.47.125 38.94.125 58.407l84.927 4.537v-118.18c29.857-.27 89.436 0 89.436 0l.042-95.884c-.115-11.767.313-23.805-3.256-35.165 11.417-1.396 28.098-.677 39.588 0zM683.04 314.1c6.272-.01 12.555-.01 18.837 0-.073 8.556-.02 17.123-.27 25.69-6.2.178-12.39.303-18.567.428V314.1zm29.857-.01c2.703.01 8.12.01 10.833.01v26.16c-2.734-.136-8.192-.428-10.916-.574.25-8.536.365-17.07.083-25.597zM492.063 343.28h25.046v34.393c-8.36-.01-16.698 0-25.047 0v-34.393zm29.22 0h25.047v34.393c-8.36-.01-16.698 0-25.046 0v-34.393zm29.22 0h26.09v34.393c-8.703-.01-17.396-.01-26.09 0v-34.393z" id="Shape"/><path d="M361.844 368.597c10.258-.25 20.527-.354 30.786-.094.125 7.807.156 15.634.063 23.46-10.26.24-20.528.345-30.786.095-.126-7.827-.157-15.644-.063-23.46z" id="Shape"/><path d="M372.29 394.705c6.617-.198 13.233-.313 19.86-.396.302 6.48.49 12.974.605 19.488-6.93.167-13.848.323-20.778.407.094-6.504.115-12.997.313-19.5z"/></g><path d="M1270.272 222.426h-223.896v57.938h76.596V573h70.704V280.364h76.596v-57.938zm127.66 319.64V573h64.812V308.842h-67.758V484.13c0 29.132-11.948 43.698-35.844 43.698-10.147 0-17.512-2.7-22.095-8.1-4.582-5.403-6.873-14.977-6.873-28.725v-182.16h-67.758V504.75c0 26.515 5.81 45.418 17.43 56.712 11.62 11.293 28.232 16.94 49.836 16.94 14.73 0 27.824-2.783 39.28-8.348 11.457-5.565 20.786-14.894 27.987-27.987h.98zm172.34-92.798c0-17.676.41-32.65 1.228-44.926.818-12.276 2.537-22.095 5.156-29.46 2.618-7.366 6.22-12.685 10.802-15.958 4.582-3.273 10.638-4.91 18.166-4.91 13.42 0 22.668 6.71 27.742 20.13 5.074 13.422 7.61 36.17 7.61 68.25 0 11.13-.572 21.358-1.718 30.688-1.146 9.33-3.11 17.266-5.892 23.813-2.782 6.547-6.547 11.702-11.293 15.466-4.746 3.766-10.72 5.648-17.922 5.648-7.2 0-13.01-1.882-17.43-5.647-4.418-3.763-7.855-8.836-10.31-15.22-2.455-6.383-4.092-13.666-4.91-21.85-.818-8.182-1.227-16.857-1.227-26.022zm135.517-140.426h-64.813v29.46h-.983c-6.546-13.748-14.893-23.24-25.04-28.478-10.148-5.237-19.968-7.856-29.46-7.856-18.33 0-32.98 4.092-43.945 12.275-10.967 8.183-19.314 18.74-25.042 31.67-5.728 12.93-9.493 27.414-11.293 43.453-1.8 16.04-2.7 31.75-2.7 47.136 0 48.118 6.792 82.406 20.376 102.864 13.585 20.46 33.798 30.688 60.64 30.688 10.802 0 21.194-2.946 31.178-8.838 9.984-5.892 18.412-13.748 25.286-23.568h.983v34.86c0 13.094-2.783 24.06-8.348 32.898-5.565 8.838-15.22 13.257-28.97 13.257-4.255 0-8.265-.655-12.03-1.964-3.763-1.31-7.282-3.11-10.556-5.402-6.874-4.91-10.31-11.62-10.31-20.13h-64.813c0 22.585 7.776 40.015 23.324 52.29 15.548 12.276 37.725 18.413 66.53 18.413 39.608 0 67.84-8.51 84.698-25.53 16.858-17.022 25.287-42.554 25.287-76.597v-250.9zm47.626-86.416V573h64.812v-27.987h.98c7.53 12.44 15.96 21.113 25.288 26.023 9.33 4.91 20.867 7.365 34.615 7.365 27.825 0 48.283-10.637 61.377-31.914 13.093-21.277 19.64-56.465 19.64-105.565 0-49.1-6.547-84.533-19.64-106.3-13.094-21.768-33.552-32.652-61.376-32.652-12.765 0-23.648 2.62-32.65 7.856-9.002 5.237-17.103 13.093-24.304 23.568h-.982V222.426h-67.758zm67.758 218.495c0-28.804 2.21-50.49 6.628-65.057 4.42-14.566 14.157-21.85 29.215-21.85 14.73 0 24.304 7.284 28.723 21.85 4.42 14.567 6.63 36.253 6.63 65.058 0 28.806-2.21 50.492-6.63 65.058-4.42 14.567-13.993 21.85-28.724 21.85-15.057 0-24.795-7.283-29.214-21.85-4.42-14.566-6.628-36.252-6.628-65.057zm236.662 0c0-13.42.327-25.858.982-37.315.654-11.457 2.21-21.277 4.664-29.46 2.455-8.183 6.137-14.566 11.048-19.15 4.91-4.582 11.456-6.873 19.64-6.873 13.748 0 23.24 7.2 28.477 21.604 5.238 14.403 7.856 38.134 7.856 71.195 0 33.062-2.618 56.793-7.856 71.196-5.237 14.403-14.73 21.604-28.477 21.604-8.184 0-14.73-2.29-19.64-6.874-4.91-4.583-8.593-10.966-11.048-19.15-2.455-8.182-4.01-18.002-4.664-29.46-.655-11.456-.983-23.894-.983-37.315zm-67.758 0c0 22.914 1.636 43.127 4.91 60.64 3.273 17.512 8.837 32.078 16.693 43.7 7.858 11.62 18.496 20.13 31.917 25.53 13.42 5.402 30.278 7.938 50.572 7.61 19.312 0 35.597-2.78 48.854-8.346 13.257-5.565 23.977-14.157 32.16-25.777 8.184-11.62 14.076-26.105 17.676-43.454 3.6-17.35 5.4-37.316 5.4-59.902 0-23.24-1.635-43.534-4.91-60.883-3.272-17.35-8.836-31.915-16.693-43.7-7.856-11.783-18.494-20.54-31.915-26.267-13.42-5.73-30.278-8.43-50.573-8.102-19.313 0-35.598 3.028-48.855 9.083-13.257 6.057-23.977 14.895-32.16 26.515-8.184 11.62-14.076 26.105-17.677 43.454-3.6 17.348-5.4 37.315-5.4 59.9zm367.758 0v52.047c0 7.2-1.31 13.42-3.927 18.658-2.62 5.237-5.975 9.493-10.067 12.766-4.092 3.274-8.592 5.647-13.503 7.12-4.91 1.474-9.656 2.21-14.238 2.21-9.166 0-15.712-3.6-19.64-10.802-3.93-7.2-5.892-15.876-5.892-26.023 0-11.784 2.945-21.113 8.837-27.987 5.893-6.874 15.712-11.784 29.46-14.73 4.256-.982 9.002-2.537 14.24-4.664 5.237-2.128 10.147-4.992 14.73-8.593zm-123.73-51.063h60.882v-7.365c0-10.475 2.62-18.822 7.857-25.04 5.237-6.22 13.093-9.33 23.568-9.33 11.456 0 19.558 2.864 24.304 8.592 4.746 5.73 7.12 13.667 7.12 23.814 0 8.838-1.964 15.548-5.892 20.13-3.93 4.584-10.966 8.184-21.114 10.803l-38.296 10.312c-11.785 3.273-21.85 7.038-30.197 11.293-8.347 4.255-15.22 9.574-20.622 15.957-5.4 6.384-9.41 14.076-12.03 23.077-2.618 9-3.927 19.72-3.927 32.16 0 8.838 1.145 17.758 3.437 26.76 2.29 9 5.89 17.103 10.802 24.304 4.91 7.2 11.456 12.848 19.64 16.94 8.183 4.09 18.166 6.137 29.95 6.137 16.367 0 29.706-2.045 40.017-6.136 10.31-4.092 19.394-13.012 27.25-26.76h.983c.98 4.583 2.045 9.247 3.19 13.993 1.147 4.747 2.865 9.248 5.157 13.503h64.81c-3.272-7.856-5.48-15.22-6.627-22.095-1.146-6.874-1.72-16.53-1.72-28.97V382.984c0-11.784-1.226-22.668-3.68-32.651-2.456-9.984-7.12-18.577-13.995-25.778-6.874-7.2-16.53-12.766-28.97-16.694-12.437-3.928-28.804-5.892-49.1-5.892-12.765 0-24.794 1.39-36.087 4.173-11.293 2.784-21.113 7.366-29.46 13.75-8.347 6.383-14.975 14.73-19.885 25.04-4.91 10.312-7.365 23.16-7.365 38.544v6.383zm251.39-156.63v75.615h-34.37v46.154h34.37v151.228c0 13.42.82 24.55 2.456 33.388 1.636 8.838 4.664 15.957 9.083 21.36 4.42 5.4 10.802 9 19.15 10.8 8.346 1.8 19.066 2.7 32.16 2.7 7.856 0 15.302-.244 22.34-.736 7.038-.49 14.32-.736 21.85-.736v-47.136c-2.292.327-4.747.573-7.365.736-2.62.164-5.238.246-7.856.246-9.82 0-16.285-2.21-19.395-6.63-3.11-4.418-4.666-11.864-4.666-22.34v-142.88h39.28v-46.154h-39.28v-75.614h-67.757z" fill="currentColor"/></g></symbol></svg>